<svg id="BG8" xmlns="http://www.w3.org/2000/svg" xmlns:xlink="http://www.w3.org/1999/xlink" width="1920" height="713" viewBox="0 0 1920 713">
  <defs>
    <clipPath id="clip-path">
      <rect width="1920" height="713" fill="none"/>
    </clipPath>
  </defs>
  <rect id="DesignerBackgroundPattern" width="1920" height="713" fill="#1c1c1c" style="mix-blend-mode: darken;isolation: isolate"/>
  <g id="Repeat_Grid_3" data-name="Repeat Grid 3" clip-path="url(#clip-path)">
    <g transform="translate(-8063 3575)">
      <path id="Career" d="M50,4a4,4,0,0,1,4-4h50a4,4,0,0,1,4,4V26h46a4,4,0,0,1,4,4v91a4,4,0,0,1-4,4H4a4,4,0,0,1-4-4V30a4,4,0,0,1,4-4H50Zm9,22H99V10a2,2,0,0,0-2-2H61a2,2,0,0,0-2,2Zm83,4h10a2,2,0,0,1,2,2v87a2,2,0,0,1-2,2H142Z" transform="translate(8063 -3566)" fill="#232323" fill-rule="evenodd"/>
      <g id="Earth" transform="translate(8483.604 -3386.087)">
        <rect id="Rectangle_1428" data-name="Rectangle 1428" width="120.955" height="120.955" rx="60.478" transform="translate(8 5.811)" fill="none" stroke="#232323" stroke-width="16"/>
        <path id="Path_1201" data-name="Path 1201" d="M42.826,42.02v2.533a.536.536,0,0,1-1.03.206l-.505-1.211-1.139-4.125a1.11,1.11,0,0,0-1.07-.814h-.025a1.057,1.057,0,0,1-.812-.38,1.057,1.057,0,0,0-1.284-.269l-1,.5a2.472,2.472,0,0,1-.621.213l-2.15.429a4.4,4.4,0,0,1-1.866-.031,4.395,4.395,0,0,0-3.6.733l-.089.065A4.632,4.632,0,0,0,26.3,41.394l-1.022,1.881a14.191,14.191,0,0,0-1.722,6.776v2.014c0,.433.86.966,1.556,1.309a2.319,2.319,0,0,0,1.03.224h1.733a.968.968,0,0,0,.968-.968.968.968,0,0,1,.492-.843L31.793,50.4a1.383,1.383,0,0,1,1.916,1.823L31.62,56.395a1.467,1.467,0,0,0,.832,2.043l2.962,1.024a1.889,1.889,0,0,1,1.235,2.156l-.528,2.637a4.05,4.05,0,0,0,1.293,3.833l.456.4a2.441,2.441,0,0,0,2.47.455l.13-.049a2.6,2.6,0,0,1,1.66-.056l.356.107a1.534,1.534,0,0,1,.816.589l.046.066a1.454,1.454,0,0,0,2.036.35l2.507-2.276a4.354,4.354,0,0,1,2.927-1.131h.092a3.787,3.787,0,0,1,1.2.194l.364.121a2.34,2.34,0,0,0,1.2.075l1.163-.232A.944.944,0,0,1,55.9,67.3a.944.944,0,0,0,.883.612h2.928l5.628.681h1.1a1.287,1.287,0,0,1,1.287,1.287,1.287,1.287,0,0,0,.88,1.221l.853.284a2.532,2.532,0,0,1,1.307,1l.45.675a4.9,4.9,0,0,0,4.075,2.18h.275a5.4,5.4,0,0,1,1.351.171l.6.156a10.334,10.334,0,0,1,6.2,4.562l.031.05.755.969a4.456,4.456,0,0,1,.68,1.237,4.452,4.452,0,0,0,2.247,2.506L90.153,86.2a11.839,11.839,0,0,0,4.136,1.145l2.57.227a13.543,13.543,0,0,1,2.083.35l1.419.355a5.461,5.461,0,0,1,1.781.805l.99.684a1.594,1.594,0,0,0,.91.284,1.6,1.6,0,0,1,1.581,1.362l.124.831a2.574,2.574,0,0,1-.646,2.12l-2.793,3.057a11.263,11.263,0,0,0-2.418,11.016l1.206,3.788a4.852,4.852,0,0,1-4.4,6.319l-4.077.191a9.139,9.139,0,0,0-4.131,1.21L75.85,127.229a13.711,13.711,0,0,1-6.844,1.83H67.884a12.266,12.266,0,0,1-12.267-12.266v-.431a15.706,15.706,0,0,0-3.85-10.3L40.919,93.578a5.709,5.709,0,0,1-1.289-2.624L39.4,89.782a2.235,2.235,0,0,1,.193-1.439,2.234,2.234,0,0,0,.2-1.419l-.179-.938a5.057,5.057,0,0,1,.632-3.551l.6-1a5.627,5.627,0,0,1,1.1-1.324,5.631,5.631,0,0,0,1.861-4.946l-.09-.7a6.958,6.958,0,0,0-1.113-2.97l-.406-.608a.993.993,0,0,0-1.6-.069l-.16.2a1.221,1.221,0,0,1-1.3.408L38.022,71.1a2.96,2.96,0,0,1-1.59-1.142l-4.418-6.3a5.494,5.494,0,0,0-2.51-1.968l-.253-.1A4.58,4.58,0,0,1,27.2,59.994L25.544,57.7a1.258,1.258,0,0,0-1.583-.39,1.258,1.258,0,0,1-.85.1l-1.056-.248a4.258,4.258,0,0,1-2.314-1.44l-2.782-3.382a3.679,3.679,0,0,1-.4-.591l-.32-.593a2.529,2.529,0,0,1,.093-2.559,2.529,2.529,0,0,0,.4-1.359V40.1a.6.6,0,0,0-1.194-.125l-.033.183a.753.753,0,1,1-1.477-.3l.774-3.52a24.035,24.035,0,0,1,2.381-6.361l.44-.806a30.474,30.474,0,0,1,4.936-6.677l2.219-2.274A53.58,53.58,0,0,1,43.395,7.825L59.228,1.554A9.117,9.117,0,0,1,71.177,13.079l-.695,1.958a9.973,9.973,0,0,1-5.806,5.968l-6.138,2.37a16.032,16.032,0,0,0-8.295,7.271l-.184.337a13.722,13.722,0,0,1-2.777,3.544l-1.94,1.776A7.749,7.749,0,0,0,42.826,42.02Z" transform="translate(-1.856 0)" fill="#232323"/>
        <path id="Path_1202" data-name="Path 1202" d="M151.271,41.574l-2.535-3.683a1.174,1.174,0,0,1,.967-1.839,1.173,1.173,0,0,0,1.105-.779l1.156-3.233,1.25.947a3.845,3.845,0,0,1,1.523,3.064,5.194,5.194,0,0,0,1.693,3.838l4.826,4.4a19.99,19.99,0,0,1,3.819,4.738l2.76,4.756a40.234,40.234,0,0,1,4.65,12.294l1.55,7.743a8.135,8.135,0,0,1-.169,3.885l-3.059,10.444a1.953,1.953,0,0,1-3.56.442L164.3,83.589a6.766,6.766,0,0,0-2.02-2.158,6.761,6.761,0,0,1-2.954-5.588V71.212a3.228,3.228,0,0,0-1.438-2.686,3.226,3.226,0,0,1-1.3-3.635l.4-1.285a5.032,5.032,0,0,0,.053-2.777l-.729-2.73a4.853,4.853,0,0,1,.217-3.136l.384-.911a2.749,2.749,0,0,0-.093-2.333l-.986-1.9a1.447,1.447,0,0,1,1.284-2.113,1.447,1.447,0,0,0,1.327-2.024l-.473-1.087a.953.953,0,0,0-1.547-.294.953.953,0,0,1-1.185.13l-2.956-1.88A3.521,3.521,0,0,1,151.271,41.574Z" transform="translate(-43.399 -9.613)" fill="#232323"/>
      </g>
      <path id="Health" d="M10.5,61,24.366,74.866H53.5L38.232,88.732l27.732,27.732a5,5,0,0,0,7.071,0L128.5,61a35.355,35.355,0,0,0-50-50l-6.763,6.763a3.163,3.163,0,0,1-4.474,0L60.5,11a35.355,35.355,0,0,0-50,50Z" transform="translate(8278 -3380.387)" fill="#232323"/>
      <g id="Party" transform="translate(8261 -3575)">
        <path id="Path_1203" data-name="Path 1203" d="M86.147,43.132l36.436-21.017a2.381,2.381,0,0,1,3.251.87l2.806,4.856a2.377,2.377,0,0,1-.871,3.248L91.333,52.107Z" fill="#232323"/>
        <path id="Path_1204" data-name="Path 1204" d="M93.556,55.953,141.54,28.273a2.381,2.381,0,0,1,3.251.87L147.6,34a2.377,2.377,0,0,1-.872,3.248L98.742,64.927Z" fill="#232323"/>
        <path id="Path_1205" data-name="Path 1205" d="M100.965,68.774l31.3-18.057a2.381,2.381,0,0,1,3.251.87l2.806,4.856a2.375,2.375,0,0,1-.871,3.248l-31.3,18.057Z" fill="#232323"/>
        <path id="Path_1206" data-name="Path 1206" d="M143.218,47.146a2.375,2.375,0,0,1,.871-3.248l4.86-2.8a2.381,2.381,0,0,1,3.251.87l2.806,4.856a2.377,2.377,0,0,1-.871,3.248l-4.86,2.8a2.381,2.381,0,0,1-3.251-.87Z" fill="#232323"/>
        <path id="Path_1207" data-name="Path 1207" d="M153.774,23.962a2.377,2.377,0,0,1,.871-3.248l4.86-2.8a2.382,2.382,0,0,1,3.252.87l2.806,4.856a2.377,2.377,0,0,1-.871,3.248l-4.861,2.8a2.381,2.381,0,0,1-3.251-.87Z" fill="#232323"/>
        <path id="Path_1208" data-name="Path 1208" d="M160.892,54.045a2.377,2.377,0,0,1,.871-3.248l4.861-2.8a2.381,2.381,0,0,1,3.251.87l2.806,4.856a2.377,2.377,0,0,1-.871,3.248l-4.861,2.8a2.381,2.381,0,0,1-3.251-.87Z" fill="#232323"/>
        <path id="Path_1209" data-name="Path 1209" d="M108.373,81.595l37.719-21.758a2.381,2.381,0,0,1,3.251.87l2.806,4.856a2.377,2.377,0,0,1-.871,3.248L113.559,90.569Z" fill="#232323"/>
        <path id="Path_1210" data-name="Path 1210" d="M115.782,94.415l28.736-16.576a2.381,2.381,0,0,1,3.251.87l2.806,4.856a2.376,2.376,0,0,1-.871,3.248L120.968,103.39Z" fill="#232323"/>
        <path id="Path_1211" data-name="Path 1211" d="M144.518,77.839a2.381,2.381,0,0,1,3.251.87l15.4,26.651a2.377,2.377,0,0,1-.871,3.248l-4.86,2.8a2.382,2.382,0,0,1-3.252-.87L137.6,81.832Z" fill="#232323"/>
        <path id="Path_1212" data-name="Path 1212" d="M127.769,31.089a2.377,2.377,0,0,0,.871-3.248l-15.4-26.651a2.381,2.381,0,0,0-3.251-.87l-4.86,2.8a2.375,2.375,0,0,0-.871,3.248l16.59,28.711Z" fill="#232323"/>
        <path id="Path_1213" data-name="Path 1213" d="M76.677,35.627l46.062,79.71a2.377,2.377,0,0,1-1.76,3.547L2.688,133.979a2.378,2.378,0,0,1-2.2-3.8l72.23-94.8A2.381,2.381,0,0,1,76.677,35.627Z" fill="#232323"/>
      </g>
      <g id="Tech" transform="translate(8474.358 -3553.396)">
        <rect id="Rectangle_1429" data-name="Rectangle 1429" width="158" height="8" rx="4" transform="translate(-0.358 91.791)" fill="#232323"/>
        <path id="Path_1214" data-name="Path 1214" d="M18.221,0a2.893,2.893,0,0,0-2.893,2.893V84.606A2.893,2.893,0,0,0,18.221,87.5H147.909a2.893,2.893,0,0,0,2.893-2.893V2.893A2.893,2.893,0,0,0,147.909,0Zm5.327,7.954A1.446,1.446,0,0,0,22.1,9.4V78.1a1.446,1.446,0,0,0,1.446,1.446H142.582a1.446,1.446,0,0,0,1.446-1.446V9.4a1.447,1.447,0,0,0-1.446-1.446Z" transform="translate(-4.244)" fill="#232323" fill-rule="evenodd"/>
      </g>
      <g id="Travel" transform="translate(8069.096 -3401.444)">
        <path id="Path_1215" data-name="Path 1215" d="M70.93,57.932,45.781,83.081a3,3,0,0,1-2.557.847l-13.3-1.954a3,3,0,0,0-2.557.847L21.781,88.4a1,1,0,0,0,.166,1.548l19.18,12.35a8.01,8.01,0,0,1,2.395,2.395l12.351,19.18a1,1,0,0,0,1.548.165L63,118.459a3,3,0,0,0,.847-2.557L61.9,102.6a3,3,0,0,1,.847-2.558L87.891,74.894a2,2,0,0,1,3.252.625l20.133,46.892a1,1,0,0,0,1.626.313l7.351-7.351a3,3,0,0,0,.849-2.548l-8.1-56.393a11.745,11.745,0,0,1,3.321-9.974l13.049-13.049A58.607,58.607,0,0,0,145.317,3.887a2.859,2.859,0,0,0-3.38-3.381,58.609,58.609,0,0,0-29.522,15.941L99.365,29.5a11.745,11.745,0,0,1-9.974,3.321L33,24.722a3,3,0,0,0-2.548.848L23.1,32.921a1,1,0,0,0,.313,1.626L70.3,54.68A2,2,0,0,1,70.93,57.932Z" fill="#232323"/>
        <path id="Path_1216" data-name="Path 1216" d="M55.554,51.379,47.563,59.37a4,4,0,0,1-5.657,0l-2.121-2.121a4,4,0,0,1,0-5.657l4.886-4.886Z" fill="#232323"/>
        <path id="Path_1217" data-name="Path 1217" d="M40.712,45.007,9.379,76.34a4,4,0,0,1-5.657,0L1.6,74.219a4,4,0,0,1,0-5.657L29.829,40.334Z" fill="#232323"/>
        <path id="Path_1218" data-name="Path 1218" d="M101.241,106.1l4.673,10.884L63.826,159.072a4,4,0,0,1-5.657,0l-2.121-2.121a4,4,0,0,1,0-5.657Z" fill="#232323"/>
        <path id="Path_1219" data-name="Path 1219" d="M94.869,91.259l4.673,10.884L87.868,113.817a4,4,0,0,1-5.657,0L80.089,111.7a4,4,0,0,1,0-5.657Z" fill="#232323"/>
        <path id="Path_1220" data-name="Path 1220" d="M39.077,62.2a4,4,0,0,1,0,5.657l-2.121,2.121a4,4,0,0,1-5.657,0l-2.121-2.121a4,4,0,0,1,0-5.657L31.3,60.077a4,4,0,0,1,5.657,0Z" fill="#232323"/>
        <path id="Path_1221" data-name="Path 1221" d="M71.6,114.524a4,4,0,0,1,5.657,0l2.121,2.122a4,4,0,0,1,0,5.656l-2.121,2.122a4,4,0,0,1-5.657,0L69.483,122.3a4,4,0,0,1,0-5.656Z" fill="#232323"/>
      </g>
    </g>
    <g transform="translate(-7455 3575)">
      <path id="Career-2" data-name="Career" d="M50,4a4,4,0,0,1,4-4h50a4,4,0,0,1,4,4V26h46a4,4,0,0,1,4,4v91a4,4,0,0,1-4,4H4a4,4,0,0,1-4-4V30a4,4,0,0,1,4-4H50Zm9,22H99V10a2,2,0,0,0-2-2H61a2,2,0,0,0-2,2Zm83,4h10a2,2,0,0,1,2,2v87a2,2,0,0,1-2,2H142Z" transform="translate(8063 -3566)" fill="#232323" fill-rule="evenodd"/>
      <g id="Earth-2" data-name="Earth" transform="translate(8483.604 -3386.087)">
        <rect id="Rectangle_1428-2" data-name="Rectangle 1428" width="120.955" height="120.955" rx="60.478" transform="translate(8 5.811)" fill="none" stroke="#232323" stroke-width="16"/>
        <path id="Path_1201-2" data-name="Path 1201" d="M42.826,42.02v2.533a.536.536,0,0,1-1.03.206l-.505-1.211-1.139-4.125a1.11,1.11,0,0,0-1.07-.814h-.025a1.057,1.057,0,0,1-.812-.38,1.057,1.057,0,0,0-1.284-.269l-1,.5a2.472,2.472,0,0,1-.621.213l-2.15.429a4.4,4.4,0,0,1-1.866-.031,4.395,4.395,0,0,0-3.6.733l-.089.065A4.632,4.632,0,0,0,26.3,41.394l-1.022,1.881a14.191,14.191,0,0,0-1.722,6.776v2.014c0,.433.86.966,1.556,1.309a2.319,2.319,0,0,0,1.03.224h1.733a.968.968,0,0,0,.968-.968.968.968,0,0,1,.492-.843L31.793,50.4a1.383,1.383,0,0,1,1.916,1.823L31.62,56.395a1.467,1.467,0,0,0,.832,2.043l2.962,1.024a1.889,1.889,0,0,1,1.235,2.156l-.528,2.637a4.05,4.05,0,0,0,1.293,3.833l.456.4a2.441,2.441,0,0,0,2.47.455l.13-.049a2.6,2.6,0,0,1,1.66-.056l.356.107a1.534,1.534,0,0,1,.816.589l.046.066a1.454,1.454,0,0,0,2.036.35l2.507-2.276a4.354,4.354,0,0,1,2.927-1.131h.092a3.787,3.787,0,0,1,1.2.194l.364.121a2.34,2.34,0,0,0,1.2.075l1.163-.232A.944.944,0,0,1,55.9,67.3a.944.944,0,0,0,.883.612h2.928l5.628.681h1.1a1.287,1.287,0,0,1,1.287,1.287,1.287,1.287,0,0,0,.88,1.221l.853.284a2.532,2.532,0,0,1,1.307,1l.45.675a4.9,4.9,0,0,0,4.075,2.18h.275a5.4,5.4,0,0,1,1.351.171l.6.156a10.334,10.334,0,0,1,6.2,4.562l.031.05.755.969a4.456,4.456,0,0,1,.68,1.237,4.452,4.452,0,0,0,2.247,2.506L90.153,86.2a11.839,11.839,0,0,0,4.136,1.145l2.57.227a13.543,13.543,0,0,1,2.083.35l1.419.355a5.461,5.461,0,0,1,1.781.805l.99.684a1.594,1.594,0,0,0,.91.284,1.6,1.6,0,0,1,1.581,1.362l.124.831a2.574,2.574,0,0,1-.646,2.12l-2.793,3.057a11.263,11.263,0,0,0-2.418,11.016l1.206,3.788a4.852,4.852,0,0,1-4.4,6.319l-4.077.191a9.139,9.139,0,0,0-4.131,1.21L75.85,127.229a13.711,13.711,0,0,1-6.844,1.83H67.884a12.266,12.266,0,0,1-12.267-12.266v-.431a15.706,15.706,0,0,0-3.85-10.3L40.919,93.578a5.709,5.709,0,0,1-1.289-2.624L39.4,89.782a2.235,2.235,0,0,1,.193-1.439,2.234,2.234,0,0,0,.2-1.419l-.179-.938a5.057,5.057,0,0,1,.632-3.551l.6-1a5.627,5.627,0,0,1,1.1-1.324,5.631,5.631,0,0,0,1.861-4.946l-.09-.7a6.958,6.958,0,0,0-1.113-2.97l-.406-.608a.993.993,0,0,0-1.6-.069l-.16.2a1.221,1.221,0,0,1-1.3.408L38.022,71.1a2.96,2.96,0,0,1-1.59-1.142l-4.418-6.3a5.494,5.494,0,0,0-2.51-1.968l-.253-.1A4.58,4.58,0,0,1,27.2,59.994L25.544,57.7a1.258,1.258,0,0,0-1.583-.39,1.258,1.258,0,0,1-.85.1l-1.056-.248a4.258,4.258,0,0,1-2.314-1.44l-2.782-3.382a3.679,3.679,0,0,1-.4-.591l-.32-.593a2.529,2.529,0,0,1,.093-2.559,2.529,2.529,0,0,0,.4-1.359V40.1a.6.6,0,0,0-1.194-.125l-.033.183a.753.753,0,1,1-1.477-.3l.774-3.52a24.035,24.035,0,0,1,2.381-6.361l.44-.806a30.474,30.474,0,0,1,4.936-6.677l2.219-2.274A53.58,53.58,0,0,1,43.395,7.825L59.228,1.554A9.117,9.117,0,0,1,71.177,13.079l-.695,1.958a9.973,9.973,0,0,1-5.806,5.968l-6.138,2.37a16.032,16.032,0,0,0-8.295,7.271l-.184.337a13.722,13.722,0,0,1-2.777,3.544l-1.94,1.776A7.749,7.749,0,0,0,42.826,42.02Z" transform="translate(-1.856 0)" fill="#232323"/>
        <path id="Path_1202-2" data-name="Path 1202" d="M151.271,41.574l-2.535-3.683a1.174,1.174,0,0,1,.967-1.839,1.173,1.173,0,0,0,1.105-.779l1.156-3.233,1.25.947a3.845,3.845,0,0,1,1.523,3.064,5.194,5.194,0,0,0,1.693,3.838l4.826,4.4a19.99,19.99,0,0,1,3.819,4.738l2.76,4.756a40.234,40.234,0,0,1,4.65,12.294l1.55,7.743a8.135,8.135,0,0,1-.169,3.885l-3.059,10.444a1.953,1.953,0,0,1-3.56.442L164.3,83.589a6.766,6.766,0,0,0-2.02-2.158,6.761,6.761,0,0,1-2.954-5.588V71.212a3.228,3.228,0,0,0-1.438-2.686,3.226,3.226,0,0,1-1.3-3.635l.4-1.285a5.032,5.032,0,0,0,.053-2.777l-.729-2.73a4.853,4.853,0,0,1,.217-3.136l.384-.911a2.749,2.749,0,0,0-.093-2.333l-.986-1.9a1.447,1.447,0,0,1,1.284-2.113,1.447,1.447,0,0,0,1.327-2.024l-.473-1.087a.953.953,0,0,0-1.547-.294.953.953,0,0,1-1.185.13l-2.956-1.88A3.521,3.521,0,0,1,151.271,41.574Z" transform="translate(-43.399 -9.613)" fill="#232323"/>
      </g>
      <path id="Health-2" data-name="Health" d="M10.5,61,24.366,74.866H53.5L38.232,88.732l27.732,27.732a5,5,0,0,0,7.071,0L128.5,61a35.355,35.355,0,0,0-50-50l-6.763,6.763a3.163,3.163,0,0,1-4.474,0L60.5,11a35.355,35.355,0,0,0-50,50Z" transform="translate(8278 -3380.387)" fill="#232323"/>
      <g id="Party-2" data-name="Party" transform="translate(8261 -3575)">
        <path id="Path_1203-2" data-name="Path 1203" d="M86.147,43.132l36.436-21.017a2.381,2.381,0,0,1,3.251.87l2.806,4.856a2.377,2.377,0,0,1-.871,3.248L91.333,52.107Z" fill="#232323"/>
        <path id="Path_1204-2" data-name="Path 1204" d="M93.556,55.953,141.54,28.273a2.381,2.381,0,0,1,3.251.87L147.6,34a2.377,2.377,0,0,1-.872,3.248L98.742,64.927Z" fill="#232323"/>
        <path id="Path_1205-2" data-name="Path 1205" d="M100.965,68.774l31.3-18.057a2.381,2.381,0,0,1,3.251.87l2.806,4.856a2.375,2.375,0,0,1-.871,3.248l-31.3,18.057Z" fill="#232323"/>
        <path id="Path_1206-2" data-name="Path 1206" d="M143.218,47.146a2.375,2.375,0,0,1,.871-3.248l4.86-2.8a2.381,2.381,0,0,1,3.251.87l2.806,4.856a2.377,2.377,0,0,1-.871,3.248l-4.86,2.8a2.381,2.381,0,0,1-3.251-.87Z" fill="#232323"/>
        <path id="Path_1207-2" data-name="Path 1207" d="M153.774,23.962a2.377,2.377,0,0,1,.871-3.248l4.86-2.8a2.382,2.382,0,0,1,3.252.87l2.806,4.856a2.377,2.377,0,0,1-.871,3.248l-4.861,2.8a2.381,2.381,0,0,1-3.251-.87Z" fill="#232323"/>
        <path id="Path_1208-2" data-name="Path 1208" d="M160.892,54.045a2.377,2.377,0,0,1,.871-3.248l4.861-2.8a2.381,2.381,0,0,1,3.251.87l2.806,4.856a2.377,2.377,0,0,1-.871,3.248l-4.861,2.8a2.381,2.381,0,0,1-3.251-.87Z" fill="#232323"/>
        <path id="Path_1209-2" data-name="Path 1209" d="M108.373,81.595l37.719-21.758a2.381,2.381,0,0,1,3.251.87l2.806,4.856a2.377,2.377,0,0,1-.871,3.248L113.559,90.569Z" fill="#232323"/>
        <path id="Path_1210-2" data-name="Path 1210" d="M115.782,94.415l28.736-16.576a2.381,2.381,0,0,1,3.251.87l2.806,4.856a2.376,2.376,0,0,1-.871,3.248L120.968,103.39Z" fill="#232323"/>
        <path id="Path_1211-2" data-name="Path 1211" d="M144.518,77.839a2.381,2.381,0,0,1,3.251.87l15.4,26.651a2.377,2.377,0,0,1-.871,3.248l-4.86,2.8a2.382,2.382,0,0,1-3.252-.87L137.6,81.832Z" fill="#232323"/>
        <path id="Path_1212-2" data-name="Path 1212" d="M127.769,31.089a2.377,2.377,0,0,0,.871-3.248l-15.4-26.651a2.381,2.381,0,0,0-3.251-.87l-4.86,2.8a2.375,2.375,0,0,0-.871,3.248l16.59,28.711Z" fill="#232323"/>
        <path id="Path_1213-2" data-name="Path 1213" d="M76.677,35.627l46.062,79.71a2.377,2.377,0,0,1-1.76,3.547L2.688,133.979a2.378,2.378,0,0,1-2.2-3.8l72.23-94.8A2.381,2.381,0,0,1,76.677,35.627Z" fill="#232323"/>
      </g>
      <g id="Tech-2" data-name="Tech" transform="translate(8474.358 -3553.396)">
        <rect id="Rectangle_1429-2" data-name="Rectangle 1429" width="158" height="8" rx="4" transform="translate(-0.358 91.791)" fill="#232323"/>
        <path id="Path_1214-2" data-name="Path 1214" d="M18.221,0a2.893,2.893,0,0,0-2.893,2.893V84.606A2.893,2.893,0,0,0,18.221,87.5H147.909a2.893,2.893,0,0,0,2.893-2.893V2.893A2.893,2.893,0,0,0,147.909,0Zm5.327,7.954A1.446,1.446,0,0,0,22.1,9.4V78.1a1.446,1.446,0,0,0,1.446,1.446H142.582a1.446,1.446,0,0,0,1.446-1.446V9.4a1.447,1.447,0,0,0-1.446-1.446Z" transform="translate(-4.244)" fill="#232323" fill-rule="evenodd"/>
      </g>
      <g id="Travel-2" data-name="Travel" transform="translate(8069.096 -3401.444)">
        <path id="Path_1215-2" data-name="Path 1215" d="M70.93,57.932,45.781,83.081a3,3,0,0,1-2.557.847l-13.3-1.954a3,3,0,0,0-2.557.847L21.781,88.4a1,1,0,0,0,.166,1.548l19.18,12.35a8.01,8.01,0,0,1,2.395,2.395l12.351,19.18a1,1,0,0,0,1.548.165L63,118.459a3,3,0,0,0,.847-2.557L61.9,102.6a3,3,0,0,1,.847-2.558L87.891,74.894a2,2,0,0,1,3.252.625l20.133,46.892a1,1,0,0,0,1.626.313l7.351-7.351a3,3,0,0,0,.849-2.548l-8.1-56.393a11.745,11.745,0,0,1,3.321-9.974l13.049-13.049A58.607,58.607,0,0,0,145.317,3.887a2.859,2.859,0,0,0-3.38-3.381,58.609,58.609,0,0,0-29.522,15.941L99.365,29.5a11.745,11.745,0,0,1-9.974,3.321L33,24.722a3,3,0,0,0-2.548.848L23.1,32.921a1,1,0,0,0,.313,1.626L70.3,54.68A2,2,0,0,1,70.93,57.932Z" fill="#232323"/>
        <path id="Path_1216-2" data-name="Path 1216" d="M55.554,51.379,47.563,59.37a4,4,0,0,1-5.657,0l-2.121-2.121a4,4,0,0,1,0-5.657l4.886-4.886Z" fill="#232323"/>
        <path id="Path_1217-2" data-name="Path 1217" d="M40.712,45.007,9.379,76.34a4,4,0,0,1-5.657,0L1.6,74.219a4,4,0,0,1,0-5.657L29.829,40.334Z" fill="#232323"/>
        <path id="Path_1218-2" data-name="Path 1218" d="M101.241,106.1l4.673,10.884L63.826,159.072a4,4,0,0,1-5.657,0l-2.121-2.121a4,4,0,0,1,0-5.657Z" fill="#232323"/>
        <path id="Path_1219-2" data-name="Path 1219" d="M94.869,91.259l4.673,10.884L87.868,113.817a4,4,0,0,1-5.657,0L80.089,111.7a4,4,0,0,1,0-5.657Z" fill="#232323"/>
        <path id="Path_1220-2" data-name="Path 1220" d="M39.077,62.2a4,4,0,0,1,0,5.657l-2.121,2.121a4,4,0,0,1-5.657,0l-2.121-2.121a4,4,0,0,1,0-5.657L31.3,60.077a4,4,0,0,1,5.657,0Z" fill="#232323"/>
        <path id="Path_1221-2" data-name="Path 1221" d="M71.6,114.524a4,4,0,0,1,5.657,0l2.121,2.122a4,4,0,0,1,0,5.656l-2.121,2.122a4,4,0,0,1-5.657,0L69.483,122.3a4,4,0,0,1,0-5.656Z" fill="#232323"/>
      </g>
    </g>
    <g transform="translate(-6847 3575)">
      <path id="Career-3" data-name="Career" d="M50,4a4,4,0,0,1,4-4h50a4,4,0,0,1,4,4V26h46a4,4,0,0,1,4,4v91a4,4,0,0,1-4,4H4a4,4,0,0,1-4-4V30a4,4,0,0,1,4-4H50Zm9,22H99V10a2,2,0,0,0-2-2H61a2,2,0,0,0-2,2Zm83,4h10a2,2,0,0,1,2,2v87a2,2,0,0,1-2,2H142Z" transform="translate(8063 -3566)" fill="#232323" fill-rule="evenodd"/>
      <g id="Earth-3" data-name="Earth" transform="translate(8483.604 -3386.087)">
        <rect id="Rectangle_1428-3" data-name="Rectangle 1428" width="120.955" height="120.955" rx="60.478" transform="translate(8 5.811)" fill="none" stroke="#232323" stroke-width="16"/>
        <path id="Path_1201-3" data-name="Path 1201" d="M42.826,42.02v2.533a.536.536,0,0,1-1.03.206l-.505-1.211-1.139-4.125a1.11,1.11,0,0,0-1.07-.814h-.025a1.057,1.057,0,0,1-.812-.38,1.057,1.057,0,0,0-1.284-.269l-1,.5a2.472,2.472,0,0,1-.621.213l-2.15.429a4.4,4.4,0,0,1-1.866-.031,4.395,4.395,0,0,0-3.6.733l-.089.065A4.632,4.632,0,0,0,26.3,41.394l-1.022,1.881a14.191,14.191,0,0,0-1.722,6.776v2.014c0,.433.86.966,1.556,1.309a2.319,2.319,0,0,0,1.03.224h1.733a.968.968,0,0,0,.968-.968.968.968,0,0,1,.492-.843L31.793,50.4a1.383,1.383,0,0,1,1.916,1.823L31.62,56.395a1.467,1.467,0,0,0,.832,2.043l2.962,1.024a1.889,1.889,0,0,1,1.235,2.156l-.528,2.637a4.05,4.05,0,0,0,1.293,3.833l.456.4a2.441,2.441,0,0,0,2.47.455l.13-.049a2.6,2.6,0,0,1,1.66-.056l.356.107a1.534,1.534,0,0,1,.816.589l.046.066a1.454,1.454,0,0,0,2.036.35l2.507-2.276a4.354,4.354,0,0,1,2.927-1.131h.092a3.787,3.787,0,0,1,1.2.194l.364.121a2.34,2.34,0,0,0,1.2.075l1.163-.232A.944.944,0,0,1,55.9,67.3a.944.944,0,0,0,.883.612h2.928l5.628.681h1.1a1.287,1.287,0,0,1,1.287,1.287,1.287,1.287,0,0,0,.88,1.221l.853.284a2.532,2.532,0,0,1,1.307,1l.45.675a4.9,4.9,0,0,0,4.075,2.18h.275a5.4,5.4,0,0,1,1.351.171l.6.156a10.334,10.334,0,0,1,6.2,4.562l.031.05.755.969a4.456,4.456,0,0,1,.68,1.237,4.452,4.452,0,0,0,2.247,2.506L90.153,86.2a11.839,11.839,0,0,0,4.136,1.145l2.57.227a13.543,13.543,0,0,1,2.083.35l1.419.355a5.461,5.461,0,0,1,1.781.805l.99.684a1.594,1.594,0,0,0,.91.284,1.6,1.6,0,0,1,1.581,1.362l.124.831a2.574,2.574,0,0,1-.646,2.12l-2.793,3.057a11.263,11.263,0,0,0-2.418,11.016l1.206,3.788a4.852,4.852,0,0,1-4.4,6.319l-4.077.191a9.139,9.139,0,0,0-4.131,1.21L75.85,127.229a13.711,13.711,0,0,1-6.844,1.83H67.884a12.266,12.266,0,0,1-12.267-12.266v-.431a15.706,15.706,0,0,0-3.85-10.3L40.919,93.578a5.709,5.709,0,0,1-1.289-2.624L39.4,89.782a2.235,2.235,0,0,1,.193-1.439,2.234,2.234,0,0,0,.2-1.419l-.179-.938a5.057,5.057,0,0,1,.632-3.551l.6-1a5.627,5.627,0,0,1,1.1-1.324,5.631,5.631,0,0,0,1.861-4.946l-.09-.7a6.958,6.958,0,0,0-1.113-2.97l-.406-.608a.993.993,0,0,0-1.6-.069l-.16.2a1.221,1.221,0,0,1-1.3.408L38.022,71.1a2.96,2.96,0,0,1-1.59-1.142l-4.418-6.3a5.494,5.494,0,0,0-2.51-1.968l-.253-.1A4.58,4.58,0,0,1,27.2,59.994L25.544,57.7a1.258,1.258,0,0,0-1.583-.39,1.258,1.258,0,0,1-.85.1l-1.056-.248a4.258,4.258,0,0,1-2.314-1.44l-2.782-3.382a3.679,3.679,0,0,1-.4-.591l-.32-.593a2.529,2.529,0,0,1,.093-2.559,2.529,2.529,0,0,0,.4-1.359V40.1a.6.6,0,0,0-1.194-.125l-.033.183a.753.753,0,1,1-1.477-.3l.774-3.52a24.035,24.035,0,0,1,2.381-6.361l.44-.806a30.474,30.474,0,0,1,4.936-6.677l2.219-2.274A53.58,53.58,0,0,1,43.395,7.825L59.228,1.554A9.117,9.117,0,0,1,71.177,13.079l-.695,1.958a9.973,9.973,0,0,1-5.806,5.968l-6.138,2.37a16.032,16.032,0,0,0-8.295,7.271l-.184.337a13.722,13.722,0,0,1-2.777,3.544l-1.94,1.776A7.749,7.749,0,0,0,42.826,42.02Z" transform="translate(-1.856 0)" fill="#232323"/>
        <path id="Path_1202-3" data-name="Path 1202" d="M151.271,41.574l-2.535-3.683a1.174,1.174,0,0,1,.967-1.839,1.173,1.173,0,0,0,1.105-.779l1.156-3.233,1.25.947a3.845,3.845,0,0,1,1.523,3.064,5.194,5.194,0,0,0,1.693,3.838l4.826,4.4a19.99,19.99,0,0,1,3.819,4.738l2.76,4.756a40.234,40.234,0,0,1,4.65,12.294l1.55,7.743a8.135,8.135,0,0,1-.169,3.885l-3.059,10.444a1.953,1.953,0,0,1-3.56.442L164.3,83.589a6.766,6.766,0,0,0-2.02-2.158,6.761,6.761,0,0,1-2.954-5.588V71.212a3.228,3.228,0,0,0-1.438-2.686,3.226,3.226,0,0,1-1.3-3.635l.4-1.285a5.032,5.032,0,0,0,.053-2.777l-.729-2.73a4.853,4.853,0,0,1,.217-3.136l.384-.911a2.749,2.749,0,0,0-.093-2.333l-.986-1.9a1.447,1.447,0,0,1,1.284-2.113,1.447,1.447,0,0,0,1.327-2.024l-.473-1.087a.953.953,0,0,0-1.547-.294.953.953,0,0,1-1.185.13l-2.956-1.88A3.521,3.521,0,0,1,151.271,41.574Z" transform="translate(-43.399 -9.613)" fill="#232323"/>
      </g>
      <path id="Health-3" data-name="Health" d="M10.5,61,24.366,74.866H53.5L38.232,88.732l27.732,27.732a5,5,0,0,0,7.071,0L128.5,61a35.355,35.355,0,0,0-50-50l-6.763,6.763a3.163,3.163,0,0,1-4.474,0L60.5,11a35.355,35.355,0,0,0-50,50Z" transform="translate(8278 -3380.387)" fill="#232323"/>
      <g id="Party-3" data-name="Party" transform="translate(8261 -3575)">
        <path id="Path_1203-3" data-name="Path 1203" d="M86.147,43.132l36.436-21.017a2.381,2.381,0,0,1,3.251.87l2.806,4.856a2.377,2.377,0,0,1-.871,3.248L91.333,52.107Z" fill="#232323"/>
        <path id="Path_1204-3" data-name="Path 1204" d="M93.556,55.953,141.54,28.273a2.381,2.381,0,0,1,3.251.87L147.6,34a2.377,2.377,0,0,1-.872,3.248L98.742,64.927Z" fill="#232323"/>
        <path id="Path_1205-3" data-name="Path 1205" d="M100.965,68.774l31.3-18.057a2.381,2.381,0,0,1,3.251.87l2.806,4.856a2.375,2.375,0,0,1-.871,3.248l-31.3,18.057Z" fill="#232323"/>
        <path id="Path_1206-3" data-name="Path 1206" d="M143.218,47.146a2.375,2.375,0,0,1,.871-3.248l4.86-2.8a2.381,2.381,0,0,1,3.251.87l2.806,4.856a2.377,2.377,0,0,1-.871,3.248l-4.86,2.8a2.381,2.381,0,0,1-3.251-.87Z" fill="#232323"/>
        <path id="Path_1207-3" data-name="Path 1207" d="M153.774,23.962a2.377,2.377,0,0,1,.871-3.248l4.86-2.8a2.382,2.382,0,0,1,3.252.87l2.806,4.856a2.377,2.377,0,0,1-.871,3.248l-4.861,2.8a2.381,2.381,0,0,1-3.251-.87Z" fill="#232323"/>
        <path id="Path_1208-3" data-name="Path 1208" d="M160.892,54.045a2.377,2.377,0,0,1,.871-3.248l4.861-2.8a2.381,2.381,0,0,1,3.251.87l2.806,4.856a2.377,2.377,0,0,1-.871,3.248l-4.861,2.8a2.381,2.381,0,0,1-3.251-.87Z" fill="#232323"/>
        <path id="Path_1209-3" data-name="Path 1209" d="M108.373,81.595l37.719-21.758a2.381,2.381,0,0,1,3.251.87l2.806,4.856a2.377,2.377,0,0,1-.871,3.248L113.559,90.569Z" fill="#232323"/>
        <path id="Path_1210-3" data-name="Path 1210" d="M115.782,94.415l28.736-16.576a2.381,2.381,0,0,1,3.251.87l2.806,4.856a2.376,2.376,0,0,1-.871,3.248L120.968,103.39Z" fill="#232323"/>
        <path id="Path_1211-3" data-name="Path 1211" d="M144.518,77.839a2.381,2.381,0,0,1,3.251.87l15.4,26.651a2.377,2.377,0,0,1-.871,3.248l-4.86,2.8a2.382,2.382,0,0,1-3.252-.87L137.6,81.832Z" fill="#232323"/>
        <path id="Path_1212-3" data-name="Path 1212" d="M127.769,31.089a2.377,2.377,0,0,0,.871-3.248l-15.4-26.651a2.381,2.381,0,0,0-3.251-.87l-4.86,2.8a2.375,2.375,0,0,0-.871,3.248l16.59,28.711Z" fill="#232323"/>
        <path id="Path_1213-3" data-name="Path 1213" d="M76.677,35.627l46.062,79.71a2.377,2.377,0,0,1-1.76,3.547L2.688,133.979a2.378,2.378,0,0,1-2.2-3.8l72.23-94.8A2.381,2.381,0,0,1,76.677,35.627Z" fill="#232323"/>
      </g>
      <g id="Tech-3" data-name="Tech" transform="translate(8474.358 -3553.396)">
        <rect id="Rectangle_1429-3" data-name="Rectangle 1429" width="158" height="8" rx="4" transform="translate(-0.358 91.791)" fill="#232323"/>
        <path id="Path_1214-3" data-name="Path 1214" d="M18.221,0a2.893,2.893,0,0,0-2.893,2.893V84.606A2.893,2.893,0,0,0,18.221,87.5H147.909a2.893,2.893,0,0,0,2.893-2.893V2.893A2.893,2.893,0,0,0,147.909,0Zm5.327,7.954A1.446,1.446,0,0,0,22.1,9.4V78.1a1.446,1.446,0,0,0,1.446,1.446H142.582a1.446,1.446,0,0,0,1.446-1.446V9.4a1.447,1.447,0,0,0-1.446-1.446Z" transform="translate(-4.244)" fill="#232323" fill-rule="evenodd"/>
      </g>
      <g id="Travel-3" data-name="Travel" transform="translate(8069.096 -3401.444)">
        <path id="Path_1215-3" data-name="Path 1215" d="M70.93,57.932,45.781,83.081a3,3,0,0,1-2.557.847l-13.3-1.954a3,3,0,0,0-2.557.847L21.781,88.4a1,1,0,0,0,.166,1.548l19.18,12.35a8.01,8.01,0,0,1,2.395,2.395l12.351,19.18a1,1,0,0,0,1.548.165L63,118.459a3,3,0,0,0,.847-2.557L61.9,102.6a3,3,0,0,1,.847-2.558L87.891,74.894a2,2,0,0,1,3.252.625l20.133,46.892a1,1,0,0,0,1.626.313l7.351-7.351a3,3,0,0,0,.849-2.548l-8.1-56.393a11.745,11.745,0,0,1,3.321-9.974l13.049-13.049A58.607,58.607,0,0,0,145.317,3.887a2.859,2.859,0,0,0-3.38-3.381,58.609,58.609,0,0,0-29.522,15.941L99.365,29.5a11.745,11.745,0,0,1-9.974,3.321L33,24.722a3,3,0,0,0-2.548.848L23.1,32.921a1,1,0,0,0,.313,1.626L70.3,54.68A2,2,0,0,1,70.93,57.932Z" fill="#232323"/>
        <path id="Path_1216-3" data-name="Path 1216" d="M55.554,51.379,47.563,59.37a4,4,0,0,1-5.657,0l-2.121-2.121a4,4,0,0,1,0-5.657l4.886-4.886Z" fill="#232323"/>
        <path id="Path_1217-3" data-name="Path 1217" d="M40.712,45.007,9.379,76.34a4,4,0,0,1-5.657,0L1.6,74.219a4,4,0,0,1,0-5.657L29.829,40.334Z" fill="#232323"/>
        <path id="Path_1218-3" data-name="Path 1218" d="M101.241,106.1l4.673,10.884L63.826,159.072a4,4,0,0,1-5.657,0l-2.121-2.121a4,4,0,0,1,0-5.657Z" fill="#232323"/>
        <path id="Path_1219-3" data-name="Path 1219" d="M94.869,91.259l4.673,10.884L87.868,113.817a4,4,0,0,1-5.657,0L80.089,111.7a4,4,0,0,1,0-5.657Z" fill="#232323"/>
        <path id="Path_1220-3" data-name="Path 1220" d="M39.077,62.2a4,4,0,0,1,0,5.657l-2.121,2.121a4,4,0,0,1-5.657,0l-2.121-2.121a4,4,0,0,1,0-5.657L31.3,60.077a4,4,0,0,1,5.657,0Z" fill="#232323"/>
        <path id="Path_1221-3" data-name="Path 1221" d="M71.6,114.524a4,4,0,0,1,5.657,0l2.121,2.122a4,4,0,0,1,0,5.656l-2.121,2.122a4,4,0,0,1-5.657,0L69.483,122.3a4,4,0,0,1,0-5.656Z" fill="#232323"/>
      </g>
    </g>
    <g transform="translate(-6239 3575)">
      <path id="Career-4" data-name="Career" d="M50,4a4,4,0,0,1,4-4h50a4,4,0,0,1,4,4V26h46a4,4,0,0,1,4,4v91a4,4,0,0,1-4,4H4a4,4,0,0,1-4-4V30a4,4,0,0,1,4-4H50Zm9,22H99V10a2,2,0,0,0-2-2H61a2,2,0,0,0-2,2Zm83,4h10a2,2,0,0,1,2,2v87a2,2,0,0,1-2,2H142Z" transform="translate(8063 -3566)" fill="#232323" fill-rule="evenodd"/>
      <g id="Earth-4" data-name="Earth" transform="translate(8483.604 -3386.087)">
        <rect id="Rectangle_1428-4" data-name="Rectangle 1428" width="120.955" height="120.955" rx="60.478" transform="translate(8 5.811)" fill="none" stroke="#232323" stroke-width="16"/>
        <path id="Path_1201-4" data-name="Path 1201" d="M42.826,42.02v2.533a.536.536,0,0,1-1.03.206l-.505-1.211-1.139-4.125a1.11,1.11,0,0,0-1.07-.814h-.025a1.057,1.057,0,0,1-.812-.38,1.057,1.057,0,0,0-1.284-.269l-1,.5a2.472,2.472,0,0,1-.621.213l-2.15.429a4.4,4.4,0,0,1-1.866-.031,4.395,4.395,0,0,0-3.6.733l-.089.065A4.632,4.632,0,0,0,26.3,41.394l-1.022,1.881a14.191,14.191,0,0,0-1.722,6.776v2.014c0,.433.86.966,1.556,1.309a2.319,2.319,0,0,0,1.03.224h1.733a.968.968,0,0,0,.968-.968.968.968,0,0,1,.492-.843L31.793,50.4a1.383,1.383,0,0,1,1.916,1.823L31.62,56.395a1.467,1.467,0,0,0,.832,2.043l2.962,1.024a1.889,1.889,0,0,1,1.235,2.156l-.528,2.637a4.05,4.05,0,0,0,1.293,3.833l.456.4a2.441,2.441,0,0,0,2.47.455l.13-.049a2.6,2.6,0,0,1,1.66-.056l.356.107a1.534,1.534,0,0,1,.816.589l.046.066a1.454,1.454,0,0,0,2.036.35l2.507-2.276a4.354,4.354,0,0,1,2.927-1.131h.092a3.787,3.787,0,0,1,1.2.194l.364.121a2.34,2.34,0,0,0,1.2.075l1.163-.232A.944.944,0,0,1,55.9,67.3a.944.944,0,0,0,.883.612h2.928l5.628.681h1.1a1.287,1.287,0,0,1,1.287,1.287,1.287,1.287,0,0,0,.88,1.221l.853.284a2.532,2.532,0,0,1,1.307,1l.45.675a4.9,4.9,0,0,0,4.075,2.18h.275a5.4,5.4,0,0,1,1.351.171l.6.156a10.334,10.334,0,0,1,6.2,4.562l.031.05.755.969a4.456,4.456,0,0,1,.68,1.237,4.452,4.452,0,0,0,2.247,2.506L90.153,86.2a11.839,11.839,0,0,0,4.136,1.145l2.57.227a13.543,13.543,0,0,1,2.083.35l1.419.355a5.461,5.461,0,0,1,1.781.805l.99.684a1.594,1.594,0,0,0,.91.284,1.6,1.6,0,0,1,1.581,1.362l.124.831a2.574,2.574,0,0,1-.646,2.12l-2.793,3.057a11.263,11.263,0,0,0-2.418,11.016l1.206,3.788a4.852,4.852,0,0,1-4.4,6.319l-4.077.191a9.139,9.139,0,0,0-4.131,1.21L75.85,127.229a13.711,13.711,0,0,1-6.844,1.83H67.884a12.266,12.266,0,0,1-12.267-12.266v-.431a15.706,15.706,0,0,0-3.85-10.3L40.919,93.578a5.709,5.709,0,0,1-1.289-2.624L39.4,89.782a2.235,2.235,0,0,1,.193-1.439,2.234,2.234,0,0,0,.2-1.419l-.179-.938a5.057,5.057,0,0,1,.632-3.551l.6-1a5.627,5.627,0,0,1,1.1-1.324,5.631,5.631,0,0,0,1.861-4.946l-.09-.7a6.958,6.958,0,0,0-1.113-2.97l-.406-.608a.993.993,0,0,0-1.6-.069l-.16.2a1.221,1.221,0,0,1-1.3.408L38.022,71.1a2.96,2.96,0,0,1-1.59-1.142l-4.418-6.3a5.494,5.494,0,0,0-2.51-1.968l-.253-.1A4.58,4.58,0,0,1,27.2,59.994L25.544,57.7a1.258,1.258,0,0,0-1.583-.39,1.258,1.258,0,0,1-.85.1l-1.056-.248a4.258,4.258,0,0,1-2.314-1.44l-2.782-3.382a3.679,3.679,0,0,1-.4-.591l-.32-.593a2.529,2.529,0,0,1,.093-2.559,2.529,2.529,0,0,0,.4-1.359V40.1a.6.6,0,0,0-1.194-.125l-.033.183a.753.753,0,1,1-1.477-.3l.774-3.52a24.035,24.035,0,0,1,2.381-6.361l.44-.806a30.474,30.474,0,0,1,4.936-6.677l2.219-2.274A53.58,53.58,0,0,1,43.395,7.825L59.228,1.554A9.117,9.117,0,0,1,71.177,13.079l-.695,1.958a9.973,9.973,0,0,1-5.806,5.968l-6.138,2.37a16.032,16.032,0,0,0-8.295,7.271l-.184.337a13.722,13.722,0,0,1-2.777,3.544l-1.94,1.776A7.749,7.749,0,0,0,42.826,42.02Z" transform="translate(-1.856 0)" fill="#232323"/>
        <path id="Path_1202-4" data-name="Path 1202" d="M151.271,41.574l-2.535-3.683a1.174,1.174,0,0,1,.967-1.839,1.173,1.173,0,0,0,1.105-.779l1.156-3.233,1.25.947a3.845,3.845,0,0,1,1.523,3.064,5.194,5.194,0,0,0,1.693,3.838l4.826,4.4a19.99,19.99,0,0,1,3.819,4.738l2.76,4.756a40.234,40.234,0,0,1,4.65,12.294l1.55,7.743a8.135,8.135,0,0,1-.169,3.885l-3.059,10.444a1.953,1.953,0,0,1-3.56.442L164.3,83.589a6.766,6.766,0,0,0-2.02-2.158,6.761,6.761,0,0,1-2.954-5.588V71.212a3.228,3.228,0,0,0-1.438-2.686,3.226,3.226,0,0,1-1.3-3.635l.4-1.285a5.032,5.032,0,0,0,.053-2.777l-.729-2.73a4.853,4.853,0,0,1,.217-3.136l.384-.911a2.749,2.749,0,0,0-.093-2.333l-.986-1.9a1.447,1.447,0,0,1,1.284-2.113,1.447,1.447,0,0,0,1.327-2.024l-.473-1.087a.953.953,0,0,0-1.547-.294.953.953,0,0,1-1.185.13l-2.956-1.88A3.521,3.521,0,0,1,151.271,41.574Z" transform="translate(-43.399 -9.613)" fill="#232323"/>
      </g>
      <path id="Health-4" data-name="Health" d="M10.5,61,24.366,74.866H53.5L38.232,88.732l27.732,27.732a5,5,0,0,0,7.071,0L128.5,61a35.355,35.355,0,0,0-50-50l-6.763,6.763a3.163,3.163,0,0,1-4.474,0L60.5,11a35.355,35.355,0,0,0-50,50Z" transform="translate(8278 -3380.387)" fill="#232323"/>
      <g id="Party-4" data-name="Party" transform="translate(8261 -3575)">
        <path id="Path_1203-4" data-name="Path 1203" d="M86.147,43.132l36.436-21.017a2.381,2.381,0,0,1,3.251.87l2.806,4.856a2.377,2.377,0,0,1-.871,3.248L91.333,52.107Z" fill="#232323"/>
        <path id="Path_1204-4" data-name="Path 1204" d="M93.556,55.953,141.54,28.273a2.381,2.381,0,0,1,3.251.87L147.6,34a2.377,2.377,0,0,1-.872,3.248L98.742,64.927Z" fill="#232323"/>
        <path id="Path_1205-4" data-name="Path 1205" d="M100.965,68.774l31.3-18.057a2.381,2.381,0,0,1,3.251.87l2.806,4.856a2.375,2.375,0,0,1-.871,3.248l-31.3,18.057Z" fill="#232323"/>
        <path id="Path_1206-4" data-name="Path 1206" d="M143.218,47.146a2.375,2.375,0,0,1,.871-3.248l4.86-2.8a2.381,2.381,0,0,1,3.251.87l2.806,4.856a2.377,2.377,0,0,1-.871,3.248l-4.86,2.8a2.381,2.381,0,0,1-3.251-.87Z" fill="#232323"/>
        <path id="Path_1207-4" data-name="Path 1207" d="M153.774,23.962a2.377,2.377,0,0,1,.871-3.248l4.86-2.8a2.382,2.382,0,0,1,3.252.87l2.806,4.856a2.377,2.377,0,0,1-.871,3.248l-4.861,2.8a2.381,2.381,0,0,1-3.251-.87Z" fill="#232323"/>
        <path id="Path_1208-4" data-name="Path 1208" d="M160.892,54.045a2.377,2.377,0,0,1,.871-3.248l4.861-2.8a2.381,2.381,0,0,1,3.251.87l2.806,4.856a2.377,2.377,0,0,1-.871,3.248l-4.861,2.8a2.381,2.381,0,0,1-3.251-.87Z" fill="#232323"/>
        <path id="Path_1209-4" data-name="Path 1209" d="M108.373,81.595l37.719-21.758a2.381,2.381,0,0,1,3.251.87l2.806,4.856a2.377,2.377,0,0,1-.871,3.248L113.559,90.569Z" fill="#232323"/>
        <path id="Path_1210-4" data-name="Path 1210" d="M115.782,94.415l28.736-16.576a2.381,2.381,0,0,1,3.251.87l2.806,4.856a2.376,2.376,0,0,1-.871,3.248L120.968,103.39Z" fill="#232323"/>
        <path id="Path_1211-4" data-name="Path 1211" d="M144.518,77.839a2.381,2.381,0,0,1,3.251.87l15.4,26.651a2.377,2.377,0,0,1-.871,3.248l-4.86,2.8a2.382,2.382,0,0,1-3.252-.87L137.6,81.832Z" fill="#232323"/>
        <path id="Path_1212-4" data-name="Path 1212" d="M127.769,31.089a2.377,2.377,0,0,0,.871-3.248l-15.4-26.651a2.381,2.381,0,0,0-3.251-.87l-4.86,2.8a2.375,2.375,0,0,0-.871,3.248l16.59,28.711Z" fill="#232323"/>
        <path id="Path_1213-4" data-name="Path 1213" d="M76.677,35.627l46.062,79.71a2.377,2.377,0,0,1-1.76,3.547L2.688,133.979a2.378,2.378,0,0,1-2.2-3.8l72.23-94.8A2.381,2.381,0,0,1,76.677,35.627Z" fill="#232323"/>
      </g>
      <g id="Tech-4" data-name="Tech" transform="translate(8474.358 -3553.396)">
        <rect id="Rectangle_1429-4" data-name="Rectangle 1429" width="158" height="8" rx="4" transform="translate(-0.358 91.791)" fill="#232323"/>
        <path id="Path_1214-4" data-name="Path 1214" d="M18.221,0a2.893,2.893,0,0,0-2.893,2.893V84.606A2.893,2.893,0,0,0,18.221,87.5H147.909a2.893,2.893,0,0,0,2.893-2.893V2.893A2.893,2.893,0,0,0,147.909,0Zm5.327,7.954A1.446,1.446,0,0,0,22.1,9.4V78.1a1.446,1.446,0,0,0,1.446,1.446H142.582a1.446,1.446,0,0,0,1.446-1.446V9.4a1.447,1.447,0,0,0-1.446-1.446Z" transform="translate(-4.244)" fill="#232323" fill-rule="evenodd"/>
      </g>
      <g id="Travel-4" data-name="Travel" transform="translate(8069.096 -3401.444)">
        <path id="Path_1215-4" data-name="Path 1215" d="M70.93,57.932,45.781,83.081a3,3,0,0,1-2.557.847l-13.3-1.954a3,3,0,0,0-2.557.847L21.781,88.4a1,1,0,0,0,.166,1.548l19.18,12.35a8.01,8.01,0,0,1,2.395,2.395l12.351,19.18a1,1,0,0,0,1.548.165L63,118.459a3,3,0,0,0,.847-2.557L61.9,102.6a3,3,0,0,1,.847-2.558L87.891,74.894a2,2,0,0,1,3.252.625l20.133,46.892a1,1,0,0,0,1.626.313l7.351-7.351a3,3,0,0,0,.849-2.548l-8.1-56.393a11.745,11.745,0,0,1,3.321-9.974l13.049-13.049A58.607,58.607,0,0,0,145.317,3.887a2.859,2.859,0,0,0-3.38-3.381,58.609,58.609,0,0,0-29.522,15.941L99.365,29.5a11.745,11.745,0,0,1-9.974,3.321L33,24.722a3,3,0,0,0-2.548.848L23.1,32.921a1,1,0,0,0,.313,1.626L70.3,54.68A2,2,0,0,1,70.93,57.932Z" fill="#232323"/>
        <path id="Path_1216-4" data-name="Path 1216" d="M55.554,51.379,47.563,59.37a4,4,0,0,1-5.657,0l-2.121-2.121a4,4,0,0,1,0-5.657l4.886-4.886Z" fill="#232323"/>
        <path id="Path_1217-4" data-name="Path 1217" d="M40.712,45.007,9.379,76.34a4,4,0,0,1-5.657,0L1.6,74.219a4,4,0,0,1,0-5.657L29.829,40.334Z" fill="#232323"/>
        <path id="Path_1218-4" data-name="Path 1218" d="M101.241,106.1l4.673,10.884L63.826,159.072a4,4,0,0,1-5.657,0l-2.121-2.121a4,4,0,0,1,0-5.657Z" fill="#232323"/>
        <path id="Path_1219-4" data-name="Path 1219" d="M94.869,91.259l4.673,10.884L87.868,113.817a4,4,0,0,1-5.657,0L80.089,111.7a4,4,0,0,1,0-5.657Z" fill="#232323"/>
        <path id="Path_1220-4" data-name="Path 1220" d="M39.077,62.2a4,4,0,0,1,0,5.657l-2.121,2.121a4,4,0,0,1-5.657,0l-2.121-2.121a4,4,0,0,1,0-5.657L31.3,60.077a4,4,0,0,1,5.657,0Z" fill="#232323"/>
        <path id="Path_1221-4" data-name="Path 1221" d="M71.6,114.524a4,4,0,0,1,5.657,0l2.121,2.122a4,4,0,0,1,0,5.656l-2.121,2.122a4,4,0,0,1-5.657,0L69.483,122.3a4,4,0,0,1,0-5.656Z" fill="#232323"/>
      </g>
    </g>
    <g transform="translate(-8063 3949)">
      <path id="Career-5" data-name="Career" d="M50,4a4,4,0,0,1,4-4h50a4,4,0,0,1,4,4V26h46a4,4,0,0,1,4,4v91a4,4,0,0,1-4,4H4a4,4,0,0,1-4-4V30a4,4,0,0,1,4-4H50Zm9,22H99V10a2,2,0,0,0-2-2H61a2,2,0,0,0-2,2Zm83,4h10a2,2,0,0,1,2,2v87a2,2,0,0,1-2,2H142Z" transform="translate(8063 -3566)" fill="#232323" fill-rule="evenodd"/>
      <g id="Earth-5" data-name="Earth" transform="translate(8483.604 -3386.087)">
        <rect id="Rectangle_1428-5" data-name="Rectangle 1428" width="120.955" height="120.955" rx="60.478" transform="translate(8 5.811)" fill="none" stroke="#232323" stroke-width="16"/>
        <path id="Path_1201-5" data-name="Path 1201" d="M42.826,42.02v2.533a.536.536,0,0,1-1.03.206l-.505-1.211-1.139-4.125a1.11,1.11,0,0,0-1.07-.814h-.025a1.057,1.057,0,0,1-.812-.38,1.057,1.057,0,0,0-1.284-.269l-1,.5a2.472,2.472,0,0,1-.621.213l-2.15.429a4.4,4.4,0,0,1-1.866-.031,4.395,4.395,0,0,0-3.6.733l-.089.065A4.632,4.632,0,0,0,26.3,41.394l-1.022,1.881a14.191,14.191,0,0,0-1.722,6.776v2.014c0,.433.86.966,1.556,1.309a2.319,2.319,0,0,0,1.03.224h1.733a.968.968,0,0,0,.968-.968.968.968,0,0,1,.492-.843L31.793,50.4a1.383,1.383,0,0,1,1.916,1.823L31.62,56.395a1.467,1.467,0,0,0,.832,2.043l2.962,1.024a1.889,1.889,0,0,1,1.235,2.156l-.528,2.637a4.05,4.05,0,0,0,1.293,3.833l.456.4a2.441,2.441,0,0,0,2.47.455l.13-.049a2.6,2.6,0,0,1,1.66-.056l.356.107a1.534,1.534,0,0,1,.816.589l.046.066a1.454,1.454,0,0,0,2.036.35l2.507-2.276a4.354,4.354,0,0,1,2.927-1.131h.092a3.787,3.787,0,0,1,1.2.194l.364.121a2.34,2.34,0,0,0,1.2.075l1.163-.232A.944.944,0,0,1,55.9,67.3a.944.944,0,0,0,.883.612h2.928l5.628.681h1.1a1.287,1.287,0,0,1,1.287,1.287,1.287,1.287,0,0,0,.88,1.221l.853.284a2.532,2.532,0,0,1,1.307,1l.45.675a4.9,4.9,0,0,0,4.075,2.18h.275a5.4,5.4,0,0,1,1.351.171l.6.156a10.334,10.334,0,0,1,6.2,4.562l.031.05.755.969a4.456,4.456,0,0,1,.68,1.237,4.452,4.452,0,0,0,2.247,2.506L90.153,86.2a11.839,11.839,0,0,0,4.136,1.145l2.57.227a13.543,13.543,0,0,1,2.083.35l1.419.355a5.461,5.461,0,0,1,1.781.805l.99.684a1.594,1.594,0,0,0,.91.284,1.6,1.6,0,0,1,1.581,1.362l.124.831a2.574,2.574,0,0,1-.646,2.12l-2.793,3.057a11.263,11.263,0,0,0-2.418,11.016l1.206,3.788a4.852,4.852,0,0,1-4.4,6.319l-4.077.191a9.139,9.139,0,0,0-4.131,1.21L75.85,127.229a13.711,13.711,0,0,1-6.844,1.83H67.884a12.266,12.266,0,0,1-12.267-12.266v-.431a15.706,15.706,0,0,0-3.85-10.3L40.919,93.578a5.709,5.709,0,0,1-1.289-2.624L39.4,89.782a2.235,2.235,0,0,1,.193-1.439,2.234,2.234,0,0,0,.2-1.419l-.179-.938a5.057,5.057,0,0,1,.632-3.551l.6-1a5.627,5.627,0,0,1,1.1-1.324,5.631,5.631,0,0,0,1.861-4.946l-.09-.7a6.958,6.958,0,0,0-1.113-2.97l-.406-.608a.993.993,0,0,0-1.6-.069l-.16.2a1.221,1.221,0,0,1-1.3.408L38.022,71.1a2.96,2.96,0,0,1-1.59-1.142l-4.418-6.3a5.494,5.494,0,0,0-2.51-1.968l-.253-.1A4.58,4.58,0,0,1,27.2,59.994L25.544,57.7a1.258,1.258,0,0,0-1.583-.39,1.258,1.258,0,0,1-.85.1l-1.056-.248a4.258,4.258,0,0,1-2.314-1.44l-2.782-3.382a3.679,3.679,0,0,1-.4-.591l-.32-.593a2.529,2.529,0,0,1,.093-2.559,2.529,2.529,0,0,0,.4-1.359V40.1a.6.6,0,0,0-1.194-.125l-.033.183a.753.753,0,1,1-1.477-.3l.774-3.52a24.035,24.035,0,0,1,2.381-6.361l.44-.806a30.474,30.474,0,0,1,4.936-6.677l2.219-2.274A53.58,53.58,0,0,1,43.395,7.825L59.228,1.554A9.117,9.117,0,0,1,71.177,13.079l-.695,1.958a9.973,9.973,0,0,1-5.806,5.968l-6.138,2.37a16.032,16.032,0,0,0-8.295,7.271l-.184.337a13.722,13.722,0,0,1-2.777,3.544l-1.94,1.776A7.749,7.749,0,0,0,42.826,42.02Z" transform="translate(-1.856 0)" fill="#232323"/>
        <path id="Path_1202-5" data-name="Path 1202" d="M151.271,41.574l-2.535-3.683a1.174,1.174,0,0,1,.967-1.839,1.173,1.173,0,0,0,1.105-.779l1.156-3.233,1.25.947a3.845,3.845,0,0,1,1.523,3.064,5.194,5.194,0,0,0,1.693,3.838l4.826,4.4a19.99,19.99,0,0,1,3.819,4.738l2.76,4.756a40.234,40.234,0,0,1,4.65,12.294l1.55,7.743a8.135,8.135,0,0,1-.169,3.885l-3.059,10.444a1.953,1.953,0,0,1-3.56.442L164.3,83.589a6.766,6.766,0,0,0-2.02-2.158,6.761,6.761,0,0,1-2.954-5.588V71.212a3.228,3.228,0,0,0-1.438-2.686,3.226,3.226,0,0,1-1.3-3.635l.4-1.285a5.032,5.032,0,0,0,.053-2.777l-.729-2.73a4.853,4.853,0,0,1,.217-3.136l.384-.911a2.749,2.749,0,0,0-.093-2.333l-.986-1.9a1.447,1.447,0,0,1,1.284-2.113,1.447,1.447,0,0,0,1.327-2.024l-.473-1.087a.953.953,0,0,0-1.547-.294.953.953,0,0,1-1.185.13l-2.956-1.88A3.521,3.521,0,0,1,151.271,41.574Z" transform="translate(-43.399 -9.613)" fill="#232323"/>
      </g>
      <path id="Health-5" data-name="Health" d="M10.5,61,24.366,74.866H53.5L38.232,88.732l27.732,27.732a5,5,0,0,0,7.071,0L128.5,61a35.355,35.355,0,0,0-50-50l-6.763,6.763a3.163,3.163,0,0,1-4.474,0L60.5,11a35.355,35.355,0,0,0-50,50Z" transform="translate(8278 -3380.387)" fill="#232323"/>
      <g id="Party-5" data-name="Party" transform="translate(8261 -3575)">
        <path id="Path_1203-5" data-name="Path 1203" d="M86.147,43.132l36.436-21.017a2.381,2.381,0,0,1,3.251.87l2.806,4.856a2.377,2.377,0,0,1-.871,3.248L91.333,52.107Z" fill="#232323"/>
        <path id="Path_1204-5" data-name="Path 1204" d="M93.556,55.953,141.54,28.273a2.381,2.381,0,0,1,3.251.87L147.6,34a2.377,2.377,0,0,1-.872,3.248L98.742,64.927Z" fill="#232323"/>
        <path id="Path_1205-5" data-name="Path 1205" d="M100.965,68.774l31.3-18.057a2.381,2.381,0,0,1,3.251.87l2.806,4.856a2.375,2.375,0,0,1-.871,3.248l-31.3,18.057Z" fill="#232323"/>
        <path id="Path_1206-5" data-name="Path 1206" d="M143.218,47.146a2.375,2.375,0,0,1,.871-3.248l4.86-2.8a2.381,2.381,0,0,1,3.251.87l2.806,4.856a2.377,2.377,0,0,1-.871,3.248l-4.86,2.8a2.381,2.381,0,0,1-3.251-.87Z" fill="#232323"/>
        <path id="Path_1207-5" data-name="Path 1207" d="M153.774,23.962a2.377,2.377,0,0,1,.871-3.248l4.86-2.8a2.382,2.382,0,0,1,3.252.87l2.806,4.856a2.377,2.377,0,0,1-.871,3.248l-4.861,2.8a2.381,2.381,0,0,1-3.251-.87Z" fill="#232323"/>
        <path id="Path_1208-5" data-name="Path 1208" d="M160.892,54.045a2.377,2.377,0,0,1,.871-3.248l4.861-2.8a2.381,2.381,0,0,1,3.251.87l2.806,4.856a2.377,2.377,0,0,1-.871,3.248l-4.861,2.8a2.381,2.381,0,0,1-3.251-.87Z" fill="#232323"/>
        <path id="Path_1209-5" data-name="Path 1209" d="M108.373,81.595l37.719-21.758a2.381,2.381,0,0,1,3.251.87l2.806,4.856a2.377,2.377,0,0,1-.871,3.248L113.559,90.569Z" fill="#232323"/>
        <path id="Path_1210-5" data-name="Path 1210" d="M115.782,94.415l28.736-16.576a2.381,2.381,0,0,1,3.251.87l2.806,4.856a2.376,2.376,0,0,1-.871,3.248L120.968,103.39Z" fill="#232323"/>
        <path id="Path_1211-5" data-name="Path 1211" d="M144.518,77.839a2.381,2.381,0,0,1,3.251.87l15.4,26.651a2.377,2.377,0,0,1-.871,3.248l-4.86,2.8a2.382,2.382,0,0,1-3.252-.87L137.6,81.832Z" fill="#232323"/>
        <path id="Path_1212-5" data-name="Path 1212" d="M127.769,31.089a2.377,2.377,0,0,0,.871-3.248l-15.4-26.651a2.381,2.381,0,0,0-3.251-.87l-4.86,2.8a2.375,2.375,0,0,0-.871,3.248l16.59,28.711Z" fill="#232323"/>
        <path id="Path_1213-5" data-name="Path 1213" d="M76.677,35.627l46.062,79.71a2.377,2.377,0,0,1-1.76,3.547L2.688,133.979a2.378,2.378,0,0,1-2.2-3.8l72.23-94.8A2.381,2.381,0,0,1,76.677,35.627Z" fill="#232323"/>
      </g>
      <g id="Tech-5" data-name="Tech" transform="translate(8474.358 -3553.396)">
        <rect id="Rectangle_1429-5" data-name="Rectangle 1429" width="158" height="8" rx="4" transform="translate(-0.358 91.791)" fill="#232323"/>
        <path id="Path_1214-5" data-name="Path 1214" d="M18.221,0a2.893,2.893,0,0,0-2.893,2.893V84.606A2.893,2.893,0,0,0,18.221,87.5H147.909a2.893,2.893,0,0,0,2.893-2.893V2.893A2.893,2.893,0,0,0,147.909,0Zm5.327,7.954A1.446,1.446,0,0,0,22.1,9.4V78.1a1.446,1.446,0,0,0,1.446,1.446H142.582a1.446,1.446,0,0,0,1.446-1.446V9.4a1.447,1.447,0,0,0-1.446-1.446Z" transform="translate(-4.244)" fill="#232323" fill-rule="evenodd"/>
      </g>
      <g id="Travel-5" data-name="Travel" transform="translate(8069.096 -3401.444)">
        <path id="Path_1215-5" data-name="Path 1215" d="M70.93,57.932,45.781,83.081a3,3,0,0,1-2.557.847l-13.3-1.954a3,3,0,0,0-2.557.847L21.781,88.4a1,1,0,0,0,.166,1.548l19.18,12.35a8.01,8.01,0,0,1,2.395,2.395l12.351,19.18a1,1,0,0,0,1.548.165L63,118.459a3,3,0,0,0,.847-2.557L61.9,102.6a3,3,0,0,1,.847-2.558L87.891,74.894a2,2,0,0,1,3.252.625l20.133,46.892a1,1,0,0,0,1.626.313l7.351-7.351a3,3,0,0,0,.849-2.548l-8.1-56.393a11.745,11.745,0,0,1,3.321-9.974l13.049-13.049A58.607,58.607,0,0,0,145.317,3.887a2.859,2.859,0,0,0-3.38-3.381,58.609,58.609,0,0,0-29.522,15.941L99.365,29.5a11.745,11.745,0,0,1-9.974,3.321L33,24.722a3,3,0,0,0-2.548.848L23.1,32.921a1,1,0,0,0,.313,1.626L70.3,54.68A2,2,0,0,1,70.93,57.932Z" fill="#232323"/>
        <path id="Path_1216-5" data-name="Path 1216" d="M55.554,51.379,47.563,59.37a4,4,0,0,1-5.657,0l-2.121-2.121a4,4,0,0,1,0-5.657l4.886-4.886Z" fill="#232323"/>
        <path id="Path_1217-5" data-name="Path 1217" d="M40.712,45.007,9.379,76.34a4,4,0,0,1-5.657,0L1.6,74.219a4,4,0,0,1,0-5.657L29.829,40.334Z" fill="#232323"/>
        <path id="Path_1218-5" data-name="Path 1218" d="M101.241,106.1l4.673,10.884L63.826,159.072a4,4,0,0,1-5.657,0l-2.121-2.121a4,4,0,0,1,0-5.657Z" fill="#232323"/>
        <path id="Path_1219-5" data-name="Path 1219" d="M94.869,91.259l4.673,10.884L87.868,113.817a4,4,0,0,1-5.657,0L80.089,111.7a4,4,0,0,1,0-5.657Z" fill="#232323"/>
        <path id="Path_1220-5" data-name="Path 1220" d="M39.077,62.2a4,4,0,0,1,0,5.657l-2.121,2.121a4,4,0,0,1-5.657,0l-2.121-2.121a4,4,0,0,1,0-5.657L31.3,60.077a4,4,0,0,1,5.657,0Z" fill="#232323"/>
        <path id="Path_1221-5" data-name="Path 1221" d="M71.6,114.524a4,4,0,0,1,5.657,0l2.121,2.122a4,4,0,0,1,0,5.656l-2.121,2.122a4,4,0,0,1-5.657,0L69.483,122.3a4,4,0,0,1,0-5.656Z" fill="#232323"/>
      </g>
    </g>
    <g transform="translate(-7455 3949)">
      <path id="Career-6" data-name="Career" d="M50,4a4,4,0,0,1,4-4h50a4,4,0,0,1,4,4V26h46a4,4,0,0,1,4,4v91a4,4,0,0,1-4,4H4a4,4,0,0,1-4-4V30a4,4,0,0,1,4-4H50Zm9,22H99V10a2,2,0,0,0-2-2H61a2,2,0,0,0-2,2Zm83,4h10a2,2,0,0,1,2,2v87a2,2,0,0,1-2,2H142Z" transform="translate(8063 -3566)" fill="#232323" fill-rule="evenodd"/>
      <g id="Earth-6" data-name="Earth" transform="translate(8483.604 -3386.087)">
        <rect id="Rectangle_1428-6" data-name="Rectangle 1428" width="120.955" height="120.955" rx="60.478" transform="translate(8 5.811)" fill="none" stroke="#232323" stroke-width="16"/>
        <path id="Path_1201-6" data-name="Path 1201" d="M42.826,42.02v2.533a.536.536,0,0,1-1.03.206l-.505-1.211-1.139-4.125a1.11,1.11,0,0,0-1.07-.814h-.025a1.057,1.057,0,0,1-.812-.38,1.057,1.057,0,0,0-1.284-.269l-1,.5a2.472,2.472,0,0,1-.621.213l-2.15.429a4.4,4.4,0,0,1-1.866-.031,4.395,4.395,0,0,0-3.6.733l-.089.065A4.632,4.632,0,0,0,26.3,41.394l-1.022,1.881a14.191,14.191,0,0,0-1.722,6.776v2.014c0,.433.86.966,1.556,1.309a2.319,2.319,0,0,0,1.03.224h1.733a.968.968,0,0,0,.968-.968.968.968,0,0,1,.492-.843L31.793,50.4a1.383,1.383,0,0,1,1.916,1.823L31.62,56.395a1.467,1.467,0,0,0,.832,2.043l2.962,1.024a1.889,1.889,0,0,1,1.235,2.156l-.528,2.637a4.05,4.05,0,0,0,1.293,3.833l.456.4a2.441,2.441,0,0,0,2.47.455l.13-.049a2.6,2.6,0,0,1,1.66-.056l.356.107a1.534,1.534,0,0,1,.816.589l.046.066a1.454,1.454,0,0,0,2.036.35l2.507-2.276a4.354,4.354,0,0,1,2.927-1.131h.092a3.787,3.787,0,0,1,1.2.194l.364.121a2.34,2.34,0,0,0,1.2.075l1.163-.232A.944.944,0,0,1,55.9,67.3a.944.944,0,0,0,.883.612h2.928l5.628.681h1.1a1.287,1.287,0,0,1,1.287,1.287,1.287,1.287,0,0,0,.88,1.221l.853.284a2.532,2.532,0,0,1,1.307,1l.45.675a4.9,4.9,0,0,0,4.075,2.18h.275a5.4,5.4,0,0,1,1.351.171l.6.156a10.334,10.334,0,0,1,6.2,4.562l.031.05.755.969a4.456,4.456,0,0,1,.68,1.237,4.452,4.452,0,0,0,2.247,2.506L90.153,86.2a11.839,11.839,0,0,0,4.136,1.145l2.57.227a13.543,13.543,0,0,1,2.083.35l1.419.355a5.461,5.461,0,0,1,1.781.805l.99.684a1.594,1.594,0,0,0,.91.284,1.6,1.6,0,0,1,1.581,1.362l.124.831a2.574,2.574,0,0,1-.646,2.12l-2.793,3.057a11.263,11.263,0,0,0-2.418,11.016l1.206,3.788a4.852,4.852,0,0,1-4.4,6.319l-4.077.191a9.139,9.139,0,0,0-4.131,1.21L75.85,127.229a13.711,13.711,0,0,1-6.844,1.83H67.884a12.266,12.266,0,0,1-12.267-12.266v-.431a15.706,15.706,0,0,0-3.85-10.3L40.919,93.578a5.709,5.709,0,0,1-1.289-2.624L39.4,89.782a2.235,2.235,0,0,1,.193-1.439,2.234,2.234,0,0,0,.2-1.419l-.179-.938a5.057,5.057,0,0,1,.632-3.551l.6-1a5.627,5.627,0,0,1,1.1-1.324,5.631,5.631,0,0,0,1.861-4.946l-.09-.7a6.958,6.958,0,0,0-1.113-2.97l-.406-.608a.993.993,0,0,0-1.6-.069l-.16.2a1.221,1.221,0,0,1-1.3.408L38.022,71.1a2.96,2.96,0,0,1-1.59-1.142l-4.418-6.3a5.494,5.494,0,0,0-2.51-1.968l-.253-.1A4.58,4.58,0,0,1,27.2,59.994L25.544,57.7a1.258,1.258,0,0,0-1.583-.39,1.258,1.258,0,0,1-.85.1l-1.056-.248a4.258,4.258,0,0,1-2.314-1.44l-2.782-3.382a3.679,3.679,0,0,1-.4-.591l-.32-.593a2.529,2.529,0,0,1,.093-2.559,2.529,2.529,0,0,0,.4-1.359V40.1a.6.6,0,0,0-1.194-.125l-.033.183a.753.753,0,1,1-1.477-.3l.774-3.52a24.035,24.035,0,0,1,2.381-6.361l.44-.806a30.474,30.474,0,0,1,4.936-6.677l2.219-2.274A53.58,53.58,0,0,1,43.395,7.825L59.228,1.554A9.117,9.117,0,0,1,71.177,13.079l-.695,1.958a9.973,9.973,0,0,1-5.806,5.968l-6.138,2.37a16.032,16.032,0,0,0-8.295,7.271l-.184.337a13.722,13.722,0,0,1-2.777,3.544l-1.94,1.776A7.749,7.749,0,0,0,42.826,42.02Z" transform="translate(-1.856 0)" fill="#232323"/>
        <path id="Path_1202-6" data-name="Path 1202" d="M151.271,41.574l-2.535-3.683a1.174,1.174,0,0,1,.967-1.839,1.173,1.173,0,0,0,1.105-.779l1.156-3.233,1.25.947a3.845,3.845,0,0,1,1.523,3.064,5.194,5.194,0,0,0,1.693,3.838l4.826,4.4a19.99,19.99,0,0,1,3.819,4.738l2.76,4.756a40.234,40.234,0,0,1,4.65,12.294l1.55,7.743a8.135,8.135,0,0,1-.169,3.885l-3.059,10.444a1.953,1.953,0,0,1-3.56.442L164.3,83.589a6.766,6.766,0,0,0-2.02-2.158,6.761,6.761,0,0,1-2.954-5.588V71.212a3.228,3.228,0,0,0-1.438-2.686,3.226,3.226,0,0,1-1.3-3.635l.4-1.285a5.032,5.032,0,0,0,.053-2.777l-.729-2.73a4.853,4.853,0,0,1,.217-3.136l.384-.911a2.749,2.749,0,0,0-.093-2.333l-.986-1.9a1.447,1.447,0,0,1,1.284-2.113,1.447,1.447,0,0,0,1.327-2.024l-.473-1.087a.953.953,0,0,0-1.547-.294.953.953,0,0,1-1.185.13l-2.956-1.88A3.521,3.521,0,0,1,151.271,41.574Z" transform="translate(-43.399 -9.613)" fill="#232323"/>
      </g>
      <path id="Health-6" data-name="Health" d="M10.5,61,24.366,74.866H53.5L38.232,88.732l27.732,27.732a5,5,0,0,0,7.071,0L128.5,61a35.355,35.355,0,0,0-50-50l-6.763,6.763a3.163,3.163,0,0,1-4.474,0L60.5,11a35.355,35.355,0,0,0-50,50Z" transform="translate(8278 -3380.387)" fill="#232323"/>
      <g id="Party-6" data-name="Party" transform="translate(8261 -3575)">
        <path id="Path_1203-6" data-name="Path 1203" d="M86.147,43.132l36.436-21.017a2.381,2.381,0,0,1,3.251.87l2.806,4.856a2.377,2.377,0,0,1-.871,3.248L91.333,52.107Z" fill="#232323"/>
        <path id="Path_1204-6" data-name="Path 1204" d="M93.556,55.953,141.54,28.273a2.381,2.381,0,0,1,3.251.87L147.6,34a2.377,2.377,0,0,1-.872,3.248L98.742,64.927Z" fill="#232323"/>
        <path id="Path_1205-6" data-name="Path 1205" d="M100.965,68.774l31.3-18.057a2.381,2.381,0,0,1,3.251.87l2.806,4.856a2.375,2.375,0,0,1-.871,3.248l-31.3,18.057Z" fill="#232323"/>
        <path id="Path_1206-6" data-name="Path 1206" d="M143.218,47.146a2.375,2.375,0,0,1,.871-3.248l4.86-2.8a2.381,2.381,0,0,1,3.251.87l2.806,4.856a2.377,2.377,0,0,1-.871,3.248l-4.86,2.8a2.381,2.381,0,0,1-3.251-.87Z" fill="#232323"/>
        <path id="Path_1207-6" data-name="Path 1207" d="M153.774,23.962a2.377,2.377,0,0,1,.871-3.248l4.86-2.8a2.382,2.382,0,0,1,3.252.87l2.806,4.856a2.377,2.377,0,0,1-.871,3.248l-4.861,2.8a2.381,2.381,0,0,1-3.251-.87Z" fill="#232323"/>
        <path id="Path_1208-6" data-name="Path 1208" d="M160.892,54.045a2.377,2.377,0,0,1,.871-3.248l4.861-2.8a2.381,2.381,0,0,1,3.251.87l2.806,4.856a2.377,2.377,0,0,1-.871,3.248l-4.861,2.8a2.381,2.381,0,0,1-3.251-.87Z" fill="#232323"/>
        <path id="Path_1209-6" data-name="Path 1209" d="M108.373,81.595l37.719-21.758a2.381,2.381,0,0,1,3.251.87l2.806,4.856a2.377,2.377,0,0,1-.871,3.248L113.559,90.569Z" fill="#232323"/>
        <path id="Path_1210-6" data-name="Path 1210" d="M115.782,94.415l28.736-16.576a2.381,2.381,0,0,1,3.251.87l2.806,4.856a2.376,2.376,0,0,1-.871,3.248L120.968,103.39Z" fill="#232323"/>
        <path id="Path_1211-6" data-name="Path 1211" d="M144.518,77.839a2.381,2.381,0,0,1,3.251.87l15.4,26.651a2.377,2.377,0,0,1-.871,3.248l-4.86,2.8a2.382,2.382,0,0,1-3.252-.87L137.6,81.832Z" fill="#232323"/>
        <path id="Path_1212-6" data-name="Path 1212" d="M127.769,31.089a2.377,2.377,0,0,0,.871-3.248l-15.4-26.651a2.381,2.381,0,0,0-3.251-.87l-4.86,2.8a2.375,2.375,0,0,0-.871,3.248l16.59,28.711Z" fill="#232323"/>
        <path id="Path_1213-6" data-name="Path 1213" d="M76.677,35.627l46.062,79.71a2.377,2.377,0,0,1-1.76,3.547L2.688,133.979a2.378,2.378,0,0,1-2.2-3.8l72.23-94.8A2.381,2.381,0,0,1,76.677,35.627Z" fill="#232323"/>
      </g>
      <g id="Tech-6" data-name="Tech" transform="translate(8474.358 -3553.396)">
        <rect id="Rectangle_1429-6" data-name="Rectangle 1429" width="158" height="8" rx="4" transform="translate(-0.358 91.791)" fill="#232323"/>
        <path id="Path_1214-6" data-name="Path 1214" d="M18.221,0a2.893,2.893,0,0,0-2.893,2.893V84.606A2.893,2.893,0,0,0,18.221,87.5H147.909a2.893,2.893,0,0,0,2.893-2.893V2.893A2.893,2.893,0,0,0,147.909,0Zm5.327,7.954A1.446,1.446,0,0,0,22.1,9.4V78.1a1.446,1.446,0,0,0,1.446,1.446H142.582a1.446,1.446,0,0,0,1.446-1.446V9.4a1.447,1.447,0,0,0-1.446-1.446Z" transform="translate(-4.244)" fill="#232323" fill-rule="evenodd"/>
      </g>
      <g id="Travel-6" data-name="Travel" transform="translate(8069.096 -3401.444)">
        <path id="Path_1215-6" data-name="Path 1215" d="M70.93,57.932,45.781,83.081a3,3,0,0,1-2.557.847l-13.3-1.954a3,3,0,0,0-2.557.847L21.781,88.4a1,1,0,0,0,.166,1.548l19.18,12.35a8.01,8.01,0,0,1,2.395,2.395l12.351,19.18a1,1,0,0,0,1.548.165L63,118.459a3,3,0,0,0,.847-2.557L61.9,102.6a3,3,0,0,1,.847-2.558L87.891,74.894a2,2,0,0,1,3.252.625l20.133,46.892a1,1,0,0,0,1.626.313l7.351-7.351a3,3,0,0,0,.849-2.548l-8.1-56.393a11.745,11.745,0,0,1,3.321-9.974l13.049-13.049A58.607,58.607,0,0,0,145.317,3.887a2.859,2.859,0,0,0-3.38-3.381,58.609,58.609,0,0,0-29.522,15.941L99.365,29.5a11.745,11.745,0,0,1-9.974,3.321L33,24.722a3,3,0,0,0-2.548.848L23.1,32.921a1,1,0,0,0,.313,1.626L70.3,54.68A2,2,0,0,1,70.93,57.932Z" fill="#232323"/>
        <path id="Path_1216-6" data-name="Path 1216" d="M55.554,51.379,47.563,59.37a4,4,0,0,1-5.657,0l-2.121-2.121a4,4,0,0,1,0-5.657l4.886-4.886Z" fill="#232323"/>
        <path id="Path_1217-6" data-name="Path 1217" d="M40.712,45.007,9.379,76.34a4,4,0,0,1-5.657,0L1.6,74.219a4,4,0,0,1,0-5.657L29.829,40.334Z" fill="#232323"/>
        <path id="Path_1218-6" data-name="Path 1218" d="M101.241,106.1l4.673,10.884L63.826,159.072a4,4,0,0,1-5.657,0l-2.121-2.121a4,4,0,0,1,0-5.657Z" fill="#232323"/>
        <path id="Path_1219-6" data-name="Path 1219" d="M94.869,91.259l4.673,10.884L87.868,113.817a4,4,0,0,1-5.657,0L80.089,111.7a4,4,0,0,1,0-5.657Z" fill="#232323"/>
        <path id="Path_1220-6" data-name="Path 1220" d="M39.077,62.2a4,4,0,0,1,0,5.657l-2.121,2.121a4,4,0,0,1-5.657,0l-2.121-2.121a4,4,0,0,1,0-5.657L31.3,60.077a4,4,0,0,1,5.657,0Z" fill="#232323"/>
        <path id="Path_1221-6" data-name="Path 1221" d="M71.6,114.524a4,4,0,0,1,5.657,0l2.121,2.122a4,4,0,0,1,0,5.656l-2.121,2.122a4,4,0,0,1-5.657,0L69.483,122.3a4,4,0,0,1,0-5.656Z" fill="#232323"/>
      </g>
    </g>
    <g transform="translate(-6847 3949)">
      <path id="Career-7" data-name="Career" d="M50,4a4,4,0,0,1,4-4h50a4,4,0,0,1,4,4V26h46a4,4,0,0,1,4,4v91a4,4,0,0,1-4,4H4a4,4,0,0,1-4-4V30a4,4,0,0,1,4-4H50Zm9,22H99V10a2,2,0,0,0-2-2H61a2,2,0,0,0-2,2Zm83,4h10a2,2,0,0,1,2,2v87a2,2,0,0,1-2,2H142Z" transform="translate(8063 -3566)" fill="#232323" fill-rule="evenodd"/>
      <g id="Earth-7" data-name="Earth" transform="translate(8483.604 -3386.087)">
        <rect id="Rectangle_1428-7" data-name="Rectangle 1428" width="120.955" height="120.955" rx="60.478" transform="translate(8 5.811)" fill="none" stroke="#232323" stroke-width="16"/>
        <path id="Path_1201-7" data-name="Path 1201" d="M42.826,42.02v2.533a.536.536,0,0,1-1.03.206l-.505-1.211-1.139-4.125a1.11,1.11,0,0,0-1.07-.814h-.025a1.057,1.057,0,0,1-.812-.38,1.057,1.057,0,0,0-1.284-.269l-1,.5a2.472,2.472,0,0,1-.621.213l-2.15.429a4.4,4.4,0,0,1-1.866-.031,4.395,4.395,0,0,0-3.6.733l-.089.065A4.632,4.632,0,0,0,26.3,41.394l-1.022,1.881a14.191,14.191,0,0,0-1.722,6.776v2.014c0,.433.86.966,1.556,1.309a2.319,2.319,0,0,0,1.03.224h1.733a.968.968,0,0,0,.968-.968.968.968,0,0,1,.492-.843L31.793,50.4a1.383,1.383,0,0,1,1.916,1.823L31.62,56.395a1.467,1.467,0,0,0,.832,2.043l2.962,1.024a1.889,1.889,0,0,1,1.235,2.156l-.528,2.637a4.05,4.05,0,0,0,1.293,3.833l.456.4a2.441,2.441,0,0,0,2.47.455l.13-.049a2.6,2.6,0,0,1,1.66-.056l.356.107a1.534,1.534,0,0,1,.816.589l.046.066a1.454,1.454,0,0,0,2.036.35l2.507-2.276a4.354,4.354,0,0,1,2.927-1.131h.092a3.787,3.787,0,0,1,1.2.194l.364.121a2.34,2.34,0,0,0,1.2.075l1.163-.232A.944.944,0,0,1,55.9,67.3a.944.944,0,0,0,.883.612h2.928l5.628.681h1.1a1.287,1.287,0,0,1,1.287,1.287,1.287,1.287,0,0,0,.88,1.221l.853.284a2.532,2.532,0,0,1,1.307,1l.45.675a4.9,4.9,0,0,0,4.075,2.18h.275a5.4,5.4,0,0,1,1.351.171l.6.156a10.334,10.334,0,0,1,6.2,4.562l.031.05.755.969a4.456,4.456,0,0,1,.68,1.237,4.452,4.452,0,0,0,2.247,2.506L90.153,86.2a11.839,11.839,0,0,0,4.136,1.145l2.57.227a13.543,13.543,0,0,1,2.083.35l1.419.355a5.461,5.461,0,0,1,1.781.805l.99.684a1.594,1.594,0,0,0,.91.284,1.6,1.6,0,0,1,1.581,1.362l.124.831a2.574,2.574,0,0,1-.646,2.12l-2.793,3.057a11.263,11.263,0,0,0-2.418,11.016l1.206,3.788a4.852,4.852,0,0,1-4.4,6.319l-4.077.191a9.139,9.139,0,0,0-4.131,1.21L75.85,127.229a13.711,13.711,0,0,1-6.844,1.83H67.884a12.266,12.266,0,0,1-12.267-12.266v-.431a15.706,15.706,0,0,0-3.85-10.3L40.919,93.578a5.709,5.709,0,0,1-1.289-2.624L39.4,89.782a2.235,2.235,0,0,1,.193-1.439,2.234,2.234,0,0,0,.2-1.419l-.179-.938a5.057,5.057,0,0,1,.632-3.551l.6-1a5.627,5.627,0,0,1,1.1-1.324,5.631,5.631,0,0,0,1.861-4.946l-.09-.7a6.958,6.958,0,0,0-1.113-2.97l-.406-.608a.993.993,0,0,0-1.6-.069l-.16.2a1.221,1.221,0,0,1-1.3.408L38.022,71.1a2.96,2.96,0,0,1-1.59-1.142l-4.418-6.3a5.494,5.494,0,0,0-2.51-1.968l-.253-.1A4.58,4.58,0,0,1,27.2,59.994L25.544,57.7a1.258,1.258,0,0,0-1.583-.39,1.258,1.258,0,0,1-.85.1l-1.056-.248a4.258,4.258,0,0,1-2.314-1.44l-2.782-3.382a3.679,3.679,0,0,1-.4-.591l-.32-.593a2.529,2.529,0,0,1,.093-2.559,2.529,2.529,0,0,0,.4-1.359V40.1a.6.6,0,0,0-1.194-.125l-.033.183a.753.753,0,1,1-1.477-.3l.774-3.52a24.035,24.035,0,0,1,2.381-6.361l.44-.806a30.474,30.474,0,0,1,4.936-6.677l2.219-2.274A53.58,53.58,0,0,1,43.395,7.825L59.228,1.554A9.117,9.117,0,0,1,71.177,13.079l-.695,1.958a9.973,9.973,0,0,1-5.806,5.968l-6.138,2.37a16.032,16.032,0,0,0-8.295,7.271l-.184.337a13.722,13.722,0,0,1-2.777,3.544l-1.94,1.776A7.749,7.749,0,0,0,42.826,42.02Z" transform="translate(-1.856 0)" fill="#232323"/>
        <path id="Path_1202-7" data-name="Path 1202" d="M151.271,41.574l-2.535-3.683a1.174,1.174,0,0,1,.967-1.839,1.173,1.173,0,0,0,1.105-.779l1.156-3.233,1.25.947a3.845,3.845,0,0,1,1.523,3.064,5.194,5.194,0,0,0,1.693,3.838l4.826,4.4a19.99,19.99,0,0,1,3.819,4.738l2.76,4.756a40.234,40.234,0,0,1,4.65,12.294l1.55,7.743a8.135,8.135,0,0,1-.169,3.885l-3.059,10.444a1.953,1.953,0,0,1-3.56.442L164.3,83.589a6.766,6.766,0,0,0-2.02-2.158,6.761,6.761,0,0,1-2.954-5.588V71.212a3.228,3.228,0,0,0-1.438-2.686,3.226,3.226,0,0,1-1.3-3.635l.4-1.285a5.032,5.032,0,0,0,.053-2.777l-.729-2.73a4.853,4.853,0,0,1,.217-3.136l.384-.911a2.749,2.749,0,0,0-.093-2.333l-.986-1.9a1.447,1.447,0,0,1,1.284-2.113,1.447,1.447,0,0,0,1.327-2.024l-.473-1.087a.953.953,0,0,0-1.547-.294.953.953,0,0,1-1.185.13l-2.956-1.88A3.521,3.521,0,0,1,151.271,41.574Z" transform="translate(-43.399 -9.613)" fill="#232323"/>
      </g>
      <path id="Health-7" data-name="Health" d="M10.5,61,24.366,74.866H53.5L38.232,88.732l27.732,27.732a5,5,0,0,0,7.071,0L128.5,61a35.355,35.355,0,0,0-50-50l-6.763,6.763a3.163,3.163,0,0,1-4.474,0L60.5,11a35.355,35.355,0,0,0-50,50Z" transform="translate(8278 -3380.387)" fill="#232323"/>
      <g id="Party-7" data-name="Party" transform="translate(8261 -3575)">
        <path id="Path_1203-7" data-name="Path 1203" d="M86.147,43.132l36.436-21.017a2.381,2.381,0,0,1,3.251.87l2.806,4.856a2.377,2.377,0,0,1-.871,3.248L91.333,52.107Z" fill="#232323"/>
        <path id="Path_1204-7" data-name="Path 1204" d="M93.556,55.953,141.54,28.273a2.381,2.381,0,0,1,3.251.87L147.6,34a2.377,2.377,0,0,1-.872,3.248L98.742,64.927Z" fill="#232323"/>
        <path id="Path_1205-7" data-name="Path 1205" d="M100.965,68.774l31.3-18.057a2.381,2.381,0,0,1,3.251.87l2.806,4.856a2.375,2.375,0,0,1-.871,3.248l-31.3,18.057Z" fill="#232323"/>
        <path id="Path_1206-7" data-name="Path 1206" d="M143.218,47.146a2.375,2.375,0,0,1,.871-3.248l4.86-2.8a2.381,2.381,0,0,1,3.251.87l2.806,4.856a2.377,2.377,0,0,1-.871,3.248l-4.86,2.8a2.381,2.381,0,0,1-3.251-.87Z" fill="#232323"/>
        <path id="Path_1207-7" data-name="Path 1207" d="M153.774,23.962a2.377,2.377,0,0,1,.871-3.248l4.86-2.8a2.382,2.382,0,0,1,3.252.87l2.806,4.856a2.377,2.377,0,0,1-.871,3.248l-4.861,2.8a2.381,2.381,0,0,1-3.251-.87Z" fill="#232323"/>
        <path id="Path_1208-7" data-name="Path 1208" d="M160.892,54.045a2.377,2.377,0,0,1,.871-3.248l4.861-2.8a2.381,2.381,0,0,1,3.251.87l2.806,4.856a2.377,2.377,0,0,1-.871,3.248l-4.861,2.8a2.381,2.381,0,0,1-3.251-.87Z" fill="#232323"/>
        <path id="Path_1209-7" data-name="Path 1209" d="M108.373,81.595l37.719-21.758a2.381,2.381,0,0,1,3.251.87l2.806,4.856a2.377,2.377,0,0,1-.871,3.248L113.559,90.569Z" fill="#232323"/>
        <path id="Path_1210-7" data-name="Path 1210" d="M115.782,94.415l28.736-16.576a2.381,2.381,0,0,1,3.251.87l2.806,4.856a2.376,2.376,0,0,1-.871,3.248L120.968,103.39Z" fill="#232323"/>
        <path id="Path_1211-7" data-name="Path 1211" d="M144.518,77.839a2.381,2.381,0,0,1,3.251.87l15.4,26.651a2.377,2.377,0,0,1-.871,3.248l-4.86,2.8a2.382,2.382,0,0,1-3.252-.87L137.6,81.832Z" fill="#232323"/>
        <path id="Path_1212-7" data-name="Path 1212" d="M127.769,31.089a2.377,2.377,0,0,0,.871-3.248l-15.4-26.651a2.381,2.381,0,0,0-3.251-.87l-4.86,2.8a2.375,2.375,0,0,0-.871,3.248l16.59,28.711Z" fill="#232323"/>
        <path id="Path_1213-7" data-name="Path 1213" d="M76.677,35.627l46.062,79.71a2.377,2.377,0,0,1-1.76,3.547L2.688,133.979a2.378,2.378,0,0,1-2.2-3.8l72.23-94.8A2.381,2.381,0,0,1,76.677,35.627Z" fill="#232323"/>
      </g>
      <g id="Tech-7" data-name="Tech" transform="translate(8474.358 -3553.396)">
        <rect id="Rectangle_1429-7" data-name="Rectangle 1429" width="158" height="8" rx="4" transform="translate(-0.358 91.791)" fill="#232323"/>
        <path id="Path_1214-7" data-name="Path 1214" d="M18.221,0a2.893,2.893,0,0,0-2.893,2.893V84.606A2.893,2.893,0,0,0,18.221,87.5H147.909a2.893,2.893,0,0,0,2.893-2.893V2.893A2.893,2.893,0,0,0,147.909,0Zm5.327,7.954A1.446,1.446,0,0,0,22.1,9.4V78.1a1.446,1.446,0,0,0,1.446,1.446H142.582a1.446,1.446,0,0,0,1.446-1.446V9.4a1.447,1.447,0,0,0-1.446-1.446Z" transform="translate(-4.244)" fill="#232323" fill-rule="evenodd"/>
      </g>
      <g id="Travel-7" data-name="Travel" transform="translate(8069.096 -3401.444)">
        <path id="Path_1215-7" data-name="Path 1215" d="M70.93,57.932,45.781,83.081a3,3,0,0,1-2.557.847l-13.3-1.954a3,3,0,0,0-2.557.847L21.781,88.4a1,1,0,0,0,.166,1.548l19.18,12.35a8.01,8.01,0,0,1,2.395,2.395l12.351,19.18a1,1,0,0,0,1.548.165L63,118.459a3,3,0,0,0,.847-2.557L61.9,102.6a3,3,0,0,1,.847-2.558L87.891,74.894a2,2,0,0,1,3.252.625l20.133,46.892a1,1,0,0,0,1.626.313l7.351-7.351a3,3,0,0,0,.849-2.548l-8.1-56.393a11.745,11.745,0,0,1,3.321-9.974l13.049-13.049A58.607,58.607,0,0,0,145.317,3.887a2.859,2.859,0,0,0-3.38-3.381,58.609,58.609,0,0,0-29.522,15.941L99.365,29.5a11.745,11.745,0,0,1-9.974,3.321L33,24.722a3,3,0,0,0-2.548.848L23.1,32.921a1,1,0,0,0,.313,1.626L70.3,54.68A2,2,0,0,1,70.93,57.932Z" fill="#232323"/>
        <path id="Path_1216-7" data-name="Path 1216" d="M55.554,51.379,47.563,59.37a4,4,0,0,1-5.657,0l-2.121-2.121a4,4,0,0,1,0-5.657l4.886-4.886Z" fill="#232323"/>
        <path id="Path_1217-7" data-name="Path 1217" d="M40.712,45.007,9.379,76.34a4,4,0,0,1-5.657,0L1.6,74.219a4,4,0,0,1,0-5.657L29.829,40.334Z" fill="#232323"/>
        <path id="Path_1218-7" data-name="Path 1218" d="M101.241,106.1l4.673,10.884L63.826,159.072a4,4,0,0,1-5.657,0l-2.121-2.121a4,4,0,0,1,0-5.657Z" fill="#232323"/>
        <path id="Path_1219-7" data-name="Path 1219" d="M94.869,91.259l4.673,10.884L87.868,113.817a4,4,0,0,1-5.657,0L80.089,111.7a4,4,0,0,1,0-5.657Z" fill="#232323"/>
        <path id="Path_1220-7" data-name="Path 1220" d="M39.077,62.2a4,4,0,0,1,0,5.657l-2.121,2.121a4,4,0,0,1-5.657,0l-2.121-2.121a4,4,0,0,1,0-5.657L31.3,60.077a4,4,0,0,1,5.657,0Z" fill="#232323"/>
        <path id="Path_1221-7" data-name="Path 1221" d="M71.6,114.524a4,4,0,0,1,5.657,0l2.121,2.122a4,4,0,0,1,0,5.656l-2.121,2.122a4,4,0,0,1-5.657,0L69.483,122.3a4,4,0,0,1,0-5.656Z" fill="#232323"/>
      </g>
    </g>
    <g transform="translate(-6239 3949)">
      <path id="Career-8" data-name="Career" d="M50,4a4,4,0,0,1,4-4h50a4,4,0,0,1,4,4V26h46a4,4,0,0,1,4,4v91a4,4,0,0,1-4,4H4a4,4,0,0,1-4-4V30a4,4,0,0,1,4-4H50Zm9,22H99V10a2,2,0,0,0-2-2H61a2,2,0,0,0-2,2Zm83,4h10a2,2,0,0,1,2,2v87a2,2,0,0,1-2,2H142Z" transform="translate(8063 -3566)" fill="#232323" fill-rule="evenodd"/>
      <g id="Earth-8" data-name="Earth" transform="translate(8483.604 -3386.087)">
        <rect id="Rectangle_1428-8" data-name="Rectangle 1428" width="120.955" height="120.955" rx="60.478" transform="translate(8 5.811)" fill="none" stroke="#232323" stroke-width="16"/>
        <path id="Path_1201-8" data-name="Path 1201" d="M42.826,42.02v2.533a.536.536,0,0,1-1.03.206l-.505-1.211-1.139-4.125a1.11,1.11,0,0,0-1.07-.814h-.025a1.057,1.057,0,0,1-.812-.38,1.057,1.057,0,0,0-1.284-.269l-1,.5a2.472,2.472,0,0,1-.621.213l-2.15.429a4.4,4.4,0,0,1-1.866-.031,4.395,4.395,0,0,0-3.6.733l-.089.065A4.632,4.632,0,0,0,26.3,41.394l-1.022,1.881a14.191,14.191,0,0,0-1.722,6.776v2.014c0,.433.86.966,1.556,1.309a2.319,2.319,0,0,0,1.03.224h1.733a.968.968,0,0,0,.968-.968.968.968,0,0,1,.492-.843L31.793,50.4a1.383,1.383,0,0,1,1.916,1.823L31.62,56.395a1.467,1.467,0,0,0,.832,2.043l2.962,1.024a1.889,1.889,0,0,1,1.235,2.156l-.528,2.637a4.05,4.05,0,0,0,1.293,3.833l.456.4a2.441,2.441,0,0,0,2.47.455l.13-.049a2.6,2.6,0,0,1,1.66-.056l.356.107a1.534,1.534,0,0,1,.816.589l.046.066a1.454,1.454,0,0,0,2.036.35l2.507-2.276a4.354,4.354,0,0,1,2.927-1.131h.092a3.787,3.787,0,0,1,1.2.194l.364.121a2.34,2.34,0,0,0,1.2.075l1.163-.232A.944.944,0,0,1,55.9,67.3a.944.944,0,0,0,.883.612h2.928l5.628.681h1.1a1.287,1.287,0,0,1,1.287,1.287,1.287,1.287,0,0,0,.88,1.221l.853.284a2.532,2.532,0,0,1,1.307,1l.45.675a4.9,4.9,0,0,0,4.075,2.18h.275a5.4,5.4,0,0,1,1.351.171l.6.156a10.334,10.334,0,0,1,6.2,4.562l.031.05.755.969a4.456,4.456,0,0,1,.68,1.237,4.452,4.452,0,0,0,2.247,2.506L90.153,86.2a11.839,11.839,0,0,0,4.136,1.145l2.57.227a13.543,13.543,0,0,1,2.083.35l1.419.355a5.461,5.461,0,0,1,1.781.805l.99.684a1.594,1.594,0,0,0,.91.284,1.6,1.6,0,0,1,1.581,1.362l.124.831a2.574,2.574,0,0,1-.646,2.12l-2.793,3.057a11.263,11.263,0,0,0-2.418,11.016l1.206,3.788a4.852,4.852,0,0,1-4.4,6.319l-4.077.191a9.139,9.139,0,0,0-4.131,1.21L75.85,127.229a13.711,13.711,0,0,1-6.844,1.83H67.884a12.266,12.266,0,0,1-12.267-12.266v-.431a15.706,15.706,0,0,0-3.85-10.3L40.919,93.578a5.709,5.709,0,0,1-1.289-2.624L39.4,89.782a2.235,2.235,0,0,1,.193-1.439,2.234,2.234,0,0,0,.2-1.419l-.179-.938a5.057,5.057,0,0,1,.632-3.551l.6-1a5.627,5.627,0,0,1,1.1-1.324,5.631,5.631,0,0,0,1.861-4.946l-.09-.7a6.958,6.958,0,0,0-1.113-2.97l-.406-.608a.993.993,0,0,0-1.6-.069l-.16.2a1.221,1.221,0,0,1-1.3.408L38.022,71.1a2.96,2.96,0,0,1-1.59-1.142l-4.418-6.3a5.494,5.494,0,0,0-2.51-1.968l-.253-.1A4.58,4.58,0,0,1,27.2,59.994L25.544,57.7a1.258,1.258,0,0,0-1.583-.39,1.258,1.258,0,0,1-.85.1l-1.056-.248a4.258,4.258,0,0,1-2.314-1.44l-2.782-3.382a3.679,3.679,0,0,1-.4-.591l-.32-.593a2.529,2.529,0,0,1,.093-2.559,2.529,2.529,0,0,0,.4-1.359V40.1a.6.6,0,0,0-1.194-.125l-.033.183a.753.753,0,1,1-1.477-.3l.774-3.52a24.035,24.035,0,0,1,2.381-6.361l.44-.806a30.474,30.474,0,0,1,4.936-6.677l2.219-2.274A53.58,53.58,0,0,1,43.395,7.825L59.228,1.554A9.117,9.117,0,0,1,71.177,13.079l-.695,1.958a9.973,9.973,0,0,1-5.806,5.968l-6.138,2.37a16.032,16.032,0,0,0-8.295,7.271l-.184.337a13.722,13.722,0,0,1-2.777,3.544l-1.94,1.776A7.749,7.749,0,0,0,42.826,42.02Z" transform="translate(-1.856 0)" fill="#232323"/>
        <path id="Path_1202-8" data-name="Path 1202" d="M151.271,41.574l-2.535-3.683a1.174,1.174,0,0,1,.967-1.839,1.173,1.173,0,0,0,1.105-.779l1.156-3.233,1.25.947a3.845,3.845,0,0,1,1.523,3.064,5.194,5.194,0,0,0,1.693,3.838l4.826,4.4a19.99,19.99,0,0,1,3.819,4.738l2.76,4.756a40.234,40.234,0,0,1,4.65,12.294l1.55,7.743a8.135,8.135,0,0,1-.169,3.885l-3.059,10.444a1.953,1.953,0,0,1-3.56.442L164.3,83.589a6.766,6.766,0,0,0-2.02-2.158,6.761,6.761,0,0,1-2.954-5.588V71.212a3.228,3.228,0,0,0-1.438-2.686,3.226,3.226,0,0,1-1.3-3.635l.4-1.285a5.032,5.032,0,0,0,.053-2.777l-.729-2.73a4.853,4.853,0,0,1,.217-3.136l.384-.911a2.749,2.749,0,0,0-.093-2.333l-.986-1.9a1.447,1.447,0,0,1,1.284-2.113,1.447,1.447,0,0,0,1.327-2.024l-.473-1.087a.953.953,0,0,0-1.547-.294.953.953,0,0,1-1.185.13l-2.956-1.88A3.521,3.521,0,0,1,151.271,41.574Z" transform="translate(-43.399 -9.613)" fill="#232323"/>
      </g>
      <path id="Health-8" data-name="Health" d="M10.5,61,24.366,74.866H53.5L38.232,88.732l27.732,27.732a5,5,0,0,0,7.071,0L128.5,61a35.355,35.355,0,0,0-50-50l-6.763,6.763a3.163,3.163,0,0,1-4.474,0L60.5,11a35.355,35.355,0,0,0-50,50Z" transform="translate(8278 -3380.387)" fill="#232323"/>
      <g id="Party-8" data-name="Party" transform="translate(8261 -3575)">
        <path id="Path_1203-8" data-name="Path 1203" d="M86.147,43.132l36.436-21.017a2.381,2.381,0,0,1,3.251.87l2.806,4.856a2.377,2.377,0,0,1-.871,3.248L91.333,52.107Z" fill="#232323"/>
        <path id="Path_1204-8" data-name="Path 1204" d="M93.556,55.953,141.54,28.273a2.381,2.381,0,0,1,3.251.87L147.6,34a2.377,2.377,0,0,1-.872,3.248L98.742,64.927Z" fill="#232323"/>
        <path id="Path_1205-8" data-name="Path 1205" d="M100.965,68.774l31.3-18.057a2.381,2.381,0,0,1,3.251.87l2.806,4.856a2.375,2.375,0,0,1-.871,3.248l-31.3,18.057Z" fill="#232323"/>
        <path id="Path_1206-8" data-name="Path 1206" d="M143.218,47.146a2.375,2.375,0,0,1,.871-3.248l4.86-2.8a2.381,2.381,0,0,1,3.251.87l2.806,4.856a2.377,2.377,0,0,1-.871,3.248l-4.86,2.8a2.381,2.381,0,0,1-3.251-.87Z" fill="#232323"/>
        <path id="Path_1207-8" data-name="Path 1207" d="M153.774,23.962a2.377,2.377,0,0,1,.871-3.248l4.86-2.8a2.382,2.382,0,0,1,3.252.87l2.806,4.856a2.377,2.377,0,0,1-.871,3.248l-4.861,2.8a2.381,2.381,0,0,1-3.251-.87Z" fill="#232323"/>
        <path id="Path_1208-8" data-name="Path 1208" d="M160.892,54.045a2.377,2.377,0,0,1,.871-3.248l4.861-2.8a2.381,2.381,0,0,1,3.251.87l2.806,4.856a2.377,2.377,0,0,1-.871,3.248l-4.861,2.8a2.381,2.381,0,0,1-3.251-.87Z" fill="#232323"/>
        <path id="Path_1209-8" data-name="Path 1209" d="M108.373,81.595l37.719-21.758a2.381,2.381,0,0,1,3.251.87l2.806,4.856a2.377,2.377,0,0,1-.871,3.248L113.559,90.569Z" fill="#232323"/>
        <path id="Path_1210-8" data-name="Path 1210" d="M115.782,94.415l28.736-16.576a2.381,2.381,0,0,1,3.251.87l2.806,4.856a2.376,2.376,0,0,1-.871,3.248L120.968,103.39Z" fill="#232323"/>
        <path id="Path_1211-8" data-name="Path 1211" d="M144.518,77.839a2.381,2.381,0,0,1,3.251.87l15.4,26.651a2.377,2.377,0,0,1-.871,3.248l-4.86,2.8a2.382,2.382,0,0,1-3.252-.87L137.6,81.832Z" fill="#232323"/>
        <path id="Path_1212-8" data-name="Path 1212" d="M127.769,31.089a2.377,2.377,0,0,0,.871-3.248l-15.4-26.651a2.381,2.381,0,0,0-3.251-.87l-4.86,2.8a2.375,2.375,0,0,0-.871,3.248l16.59,28.711Z" fill="#232323"/>
        <path id="Path_1213-8" data-name="Path 1213" d="M76.677,35.627l46.062,79.71a2.377,2.377,0,0,1-1.76,3.547L2.688,133.979a2.378,2.378,0,0,1-2.2-3.8l72.23-94.8A2.381,2.381,0,0,1,76.677,35.627Z" fill="#232323"/>
      </g>
      <g id="Tech-8" data-name="Tech" transform="translate(8474.358 -3553.396)">
        <rect id="Rectangle_1429-8" data-name="Rectangle 1429" width="158" height="8" rx="4" transform="translate(-0.358 91.791)" fill="#232323"/>
        <path id="Path_1214-8" data-name="Path 1214" d="M18.221,0a2.893,2.893,0,0,0-2.893,2.893V84.606A2.893,2.893,0,0,0,18.221,87.5H147.909a2.893,2.893,0,0,0,2.893-2.893V2.893A2.893,2.893,0,0,0,147.909,0Zm5.327,7.954A1.446,1.446,0,0,0,22.1,9.4V78.1a1.446,1.446,0,0,0,1.446,1.446H142.582a1.446,1.446,0,0,0,1.446-1.446V9.4a1.447,1.447,0,0,0-1.446-1.446Z" transform="translate(-4.244)" fill="#232323" fill-rule="evenodd"/>
      </g>
      <g id="Travel-8" data-name="Travel" transform="translate(8069.096 -3401.444)">
        <path id="Path_1215-8" data-name="Path 1215" d="M70.93,57.932,45.781,83.081a3,3,0,0,1-2.557.847l-13.3-1.954a3,3,0,0,0-2.557.847L21.781,88.4a1,1,0,0,0,.166,1.548l19.18,12.35a8.01,8.01,0,0,1,2.395,2.395l12.351,19.18a1,1,0,0,0,1.548.165L63,118.459a3,3,0,0,0,.847-2.557L61.9,102.6a3,3,0,0,1,.847-2.558L87.891,74.894a2,2,0,0,1,3.252.625l20.133,46.892a1,1,0,0,0,1.626.313l7.351-7.351a3,3,0,0,0,.849-2.548l-8.1-56.393a11.745,11.745,0,0,1,3.321-9.974l13.049-13.049A58.607,58.607,0,0,0,145.317,3.887a2.859,2.859,0,0,0-3.38-3.381,58.609,58.609,0,0,0-29.522,15.941L99.365,29.5a11.745,11.745,0,0,1-9.974,3.321L33,24.722a3,3,0,0,0-2.548.848L23.1,32.921a1,1,0,0,0,.313,1.626L70.3,54.68A2,2,0,0,1,70.93,57.932Z" fill="#232323"/>
        <path id="Path_1216-8" data-name="Path 1216" d="M55.554,51.379,47.563,59.37a4,4,0,0,1-5.657,0l-2.121-2.121a4,4,0,0,1,0-5.657l4.886-4.886Z" fill="#232323"/>
        <path id="Path_1217-8" data-name="Path 1217" d="M40.712,45.007,9.379,76.34a4,4,0,0,1-5.657,0L1.6,74.219a4,4,0,0,1,0-5.657L29.829,40.334Z" fill="#232323"/>
        <path id="Path_1218-8" data-name="Path 1218" d="M101.241,106.1l4.673,10.884L63.826,159.072a4,4,0,0,1-5.657,0l-2.121-2.121a4,4,0,0,1,0-5.657Z" fill="#232323"/>
        <path id="Path_1219-8" data-name="Path 1219" d="M94.869,91.259l4.673,10.884L87.868,113.817a4,4,0,0,1-5.657,0L80.089,111.7a4,4,0,0,1,0-5.657Z" fill="#232323"/>
        <path id="Path_1220-8" data-name="Path 1220" d="M39.077,62.2a4,4,0,0,1,0,5.657l-2.121,2.121a4,4,0,0,1-5.657,0l-2.121-2.121a4,4,0,0,1,0-5.657L31.3,60.077a4,4,0,0,1,5.657,0Z" fill="#232323"/>
        <path id="Path_1221-8" data-name="Path 1221" d="M71.6,114.524a4,4,0,0,1,5.657,0l2.121,2.122a4,4,0,0,1,0,5.656l-2.121,2.122a4,4,0,0,1-5.657,0L69.483,122.3a4,4,0,0,1,0-5.656Z" fill="#232323"/>
      </g>
    </g>
  </g>
  <rect id="overlay" width="1920" height="713" fill="#fe4848" style="mix-blend-mode: soft-light;isolation: isolate"/>
</svg>
