<svg width="158" height="125" viewBox="0 0 158 125" fill="none" xmlns="http://www.w3.org/2000/svg">
<path fill-rule="evenodd" clip-rule="evenodd" d="M50 4C50 1.79086 51.7908 0 54 0H104C106.209 0 108 1.79086 108 4V26H154C156.209 26 158 27.7909 158 30V121C158 123.209 156.209 125 154 125H4C1.79089 125 0 123.209 0 121V30C0 27.7909 1.79083 26 4 26H50V4ZM59 26H99V10C99 8.89543 98.1046 8 97 8H61C59.8954 8 59 8.89543 59 10V26ZM142 30H152C153.105 30 154 30.8954 154 32V119C154 120.105 153.105 121 152 121H142V30Z" fill="white"/>
</svg>
