<svg xmlns="http://www.w3.org/2000/svg" xmlns:xlink="http://www.w3.org/1999/xlink" width="711.622" height="558.559" viewBox="0 0 711.622 558.559">
  <defs>
    <linearGradient id="linear-gradient" x1="0.5" y1="0.606" x2="0.5" y2="1.131" gradientUnits="objectBoundingBox">
      <stop offset="0" stop-color="#fff"/>
      <stop offset="1" stop-color="#af0000"/>
    </linearGradient>
    <linearGradient id="linear-gradient-2" x1="0.749" y1="0.934" x2="0.379" y2="0.289" gradientUnits="objectBoundingBox">
      <stop offset="0" stop-color="#af0000"/>
      <stop offset="1" stop-color="#510303"/>
    </linearGradient>
    <filter id="Path_976" x="270.914" y="72.453" width="191.212" height="434.175" filterUnits="userSpaceOnUse">
      <feOffset dy="35" input="SourceAlpha"/>
      <feGaussianBlur stdDeviation="2.5" result="blur"/>
      <feFlood flood-color="#510303" flood-opacity="0.212"/>
      <feComposite operator="in" in2="blur"/>
      <feComposite in="SourceGraphic"/>
    </filter>
    <linearGradient id="linear-gradient-3" x1="1.145" y1="0.5" x2="0.363" y2="0.5" xlink:href="#linear-gradient-2"/>
    <filter id="Path_977" x="144.615" y="101.964" width="141.582" height="404.664" filterUnits="userSpaceOnUse">
      <feOffset dy="35" input="SourceAlpha"/>
      <feGaussianBlur stdDeviation="2.5" result="blur-2"/>
      <feFlood flood-color="#510303" flood-opacity="0.212"/>
      <feComposite operator="in" in2="blur-2"/>
      <feComposite in="SourceGraphic"/>
    </filter>
    <linearGradient id="linear-gradient-4" x1="0.938" y1="0.5" x2="-0.194" y2="0.5" gradientUnits="objectBoundingBox">
      <stop offset="0" stop-color="#fff" stop-opacity="0.376"/>
      <stop offset="0.12" stop-color="#fff" stop-opacity="0.353"/>
      <stop offset="0.33" stop-color="#fff" stop-opacity="0.29"/>
      <stop offset="0.59" stop-color="#fff" stop-opacity="0.188"/>
      <stop offset="0.9" stop-color="#fff" stop-opacity="0.051"/>
      <stop offset="1" stop-color="#fff" stop-opacity="0"/>
    </linearGradient>
    <linearGradient id="linear-gradient-7" x1="-0.7" y1="1.408" x2="-0.303" y2="1.869" gradientUnits="objectBoundingBox">
      <stop offset="0" stop-color="#ccc"/>
      <stop offset="1" stop-color="#e6e6e6"/>
    </linearGradient>
    <linearGradient id="linear-gradient-8" x1="-0.405" y1="2.373" x2="-0.087" y2="2.733" xlink:href="#linear-gradient-7"/>
    <linearGradient id="linear-gradient-9" x1="-0.484" y1="0.5" x2="0.816" y2="0.5" xlink:href="#linear-gradient-7"/>
    <linearGradient id="linear-gradient-10" x1="0.125" y1="-0.153" x2="0.452" y2="0.415" xlink:href="#linear-gradient-7"/>
    <linearGradient id="linear-gradient-11" x1="-0.483" y1="0.5" x2="0.817" y2="0.5" xlink:href="#linear-gradient-7"/>
    <linearGradient id="linear-gradient-12" x1="0.125" y1="-0.15" x2="0.452" y2="0.417" xlink:href="#linear-gradient-7"/>
    <linearGradient id="linear-gradient-13" x1="6.421" y1="-4.067" x2="6.371" y2="-3.614" xlink:href="#linear-gradient-7"/>
    <linearGradient id="linear-gradient-15" x1="47.546" y1="-12.569" x2="46.975" y2="-11.22" xlink:href="#linear-gradient-7"/>
    <linearGradient id="linear-gradient-17" x1="6.114" y1="-3.146" x2="6.063" y2="-2.693" xlink:href="#linear-gradient-7"/>
    <linearGradient id="linear-gradient-19" x1="45.418" y1="-9.617" x2="44.847" y2="-8.269" xlink:href="#linear-gradient-7"/>
    <linearGradient id="linear-gradient-21" x1="8.709" y1="-3.281" x2="8.658" y2="-2.828" xlink:href="#linear-gradient-7"/>
    <linearGradient id="linear-gradient-23" x1="63.412" y1="-10.053" x2="62.841" y2="-8.705" xlink:href="#linear-gradient-7"/>
    <linearGradient id="linear-gradient-25" x1="2.195" y1="-4.179" x2="1.84" y2="-3.935" xlink:href="#linear-gradient-7"/>
    <linearGradient id="linear-gradient-26" x1="3.302" y1="-41.781" x2="2.941" y2="-39.93" xlink:href="#linear-gradient-7"/>
    <linearGradient id="linear-gradient-27" x1="44.26" y1="5.098" x2="42.84" y2="4.716" xlink:href="#linear-gradient-7"/>
    <linearGradient id="linear-gradient-28" x1="62.666" y1="7.016" x2="61.247" y2="6.634" xlink:href="#linear-gradient-7"/>
    <linearGradient id="linear-gradient-29" x1="11.799" y1="13.634" x2="11.542" y2="12.877" xlink:href="#linear-gradient-7"/>
    <linearGradient id="linear-gradient-30" x1="8.113" y1="10.181" x2="7.855" y2="9.424" xlink:href="#linear-gradient-7"/>
    <linearGradient id="linear-gradient-31" x1="28.611" y1="21.442" x2="28.674" y2="21.283" gradientUnits="objectBoundingBox">
      <stop offset="0" stop-color="#2affb4"/>
      <stop offset="1" stop-color="#7fffb6"/>
    </linearGradient>
    <linearGradient id="linear-gradient-32" x1="108.281" y1="14.296" x2="107.888" y2="14.148" xlink:href="#linear-gradient-31"/>
    <linearGradient id="linear-gradient-33" x1="14.614" y1="5.466" x2="15.105" y2="4.957" gradientUnits="objectBoundingBox">
      <stop offset="0" stop-color="#030351"/>
      <stop offset="1" stop-color="#7fffb6"/>
    </linearGradient>
  </defs>
  <g id="ComputerIcon" transform="translate(-224.999 -192.221)">
    <g id="Layer_2" data-name="Layer 2" transform="translate(433.004 353.721)">
      <g id="Layer_7" data-name="Layer 7" transform="translate(-208.004 100)">
        <path id="Path_974" data-name="Path 974" d="M7.56,162.122,284.825,2.023a15.1,15.1,0,0,1,15.1,0L493.33,113.7a15.1,15.1,0,0,1,0,26.171L231.981,290.766a46.9,46.9,0,0,1-46.932,0L7.56,188.293a15.1,15.1,0,0,1,0-26.171Z" transform="translate(0.004)" fill="url(#linear-gradient)"/>
      </g>
    </g>
    <g id="Server" transform="translate(297.214 192.221)">
      <g id="Layer_2-2" data-name="Layer 2">
        <g id="Layer_1" data-name="Layer 1" transform="translate(80.183 0.395)">
          <path id="Path_975" data-name="Path 975" d="M56.84,101.849,232.766.28l126.3,72.058L183.138,173.907Z" transform="translate(-56.84 -0.28)" fill="url(#linear-gradient-2)"/>
        </g>
        <g id="Layer_2-3" data-name="Layer 2" transform="translate(206.199 72.453)">
          <g transform="matrix(1, 0, 0, 1, -278.41, -72.45)" filter="url(#Path_976)">
            <path id="Path_976-2" data-name="Path 976" d="M146.17,443.035,322.1,341.466l.282-290.106L146.452,152.929Z" transform="translate(132.24 21.09)" fill="#af0000"/>
          </g>
        </g>
        <g id="Layer_3" data-name="Layer 3" transform="translate(79.901 101.964)">
          <g transform="matrix(1, 0, 0, 1, -152.12, -101.96)" filter="url(#Path_977)">
            <path id="Path_977-2" data-name="Path 977" d="M56.64,362.4l.282-290.12,126.3,72.058-.282,290.106Z" transform="translate(95.48 29.68)" fill="url(#linear-gradient-3)"/>
          </g>
          <path id="Path_978" data-name="Path 978" d="M60.71,347.709,60.964,83.94l114.843,65.512-.254,263.769Z" transform="translate(-54.969 -67.491)" opacity="0.32"/>
          <path id="Path_979" data-name="Path 979" d="M60.865,195.46l-.155,24.193L175.793,349.76l-.141-29.935Z" transform="translate(-54.969 -21.692)" fill="url(#linear-gradient-4)"/>
          <path id="Path_980" data-name="Path 980" d="M60.865,122.53l-.155,10.086L175.793,262.723l-.141-15.828Z" transform="translate(-54.969 -51.643)" fill="url(#linear-gradient-4)"/>
          <path id="Path_981" data-name="Path 981" d="M60.865,96.8l-.155,24.193L175.793,251.1l-.141-29.949Z" transform="translate(-54.969 -62.21)" fill="url(#linear-gradient-4)"/>
        </g>
        <g id="Layer_4" data-name="Layer 4" transform="translate(130.629)">
          <path id="Path_982" data-name="Path 982" d="M217.39,115.6V86.556L242.542,72.04v29.046Z" transform="translate(-41.351 29.585)" fill="#f2f2f2"/>
          <path id="Path_983" data-name="Path 983" d="M92.6,10.31V68.36l25.138-14.516,150.9,87.11V111.907Z" transform="translate(-92.6 4.234)" fill="url(#linear-gradient-7)"/>
          <path id="Path_984" data-name="Path 984" d="M92.6,14.516,268.639,116.141l25.152-14.516L117.752,0,92.6,14.516v.028" transform="translate(-92.6)" fill="url(#linear-gradient-8)"/>
        </g>
        <g id="Layer_9" data-name="Layer 9" transform="translate(-5 22.458)">
          <path id="Path_989" data-name="Path 989" d="M.01,185.86l16.054,9.282V306.389L.01,297.12" transform="translate(0.004 -57.686)" fill="url(#linear-gradient-9)"/>
          <path id="Path_990" data-name="Path 990" d="M0,187.445l16.054,9.282,9.522-5.5L9.522,182s-9.875,5.276-9.508,5.488" transform="translate(0 -59.271)" fill="url(#linear-gradient-10)"/>
          <path id="Path_991" data-name="Path 991" d="M20.912,188.54l.014,111.26-9.508,5.5L11.39,194.04Z" transform="translate(4.678 -56.585)" fill="#f2f2f2"/>
          <path id="Path_992" data-name="Path 992" d="M25.11,240.22l16.068,9.268V360.734l-16.054-9.268" transform="translate(10.312 -35.361)" fill="url(#linear-gradient-11)"/>
          <path id="Path_993" data-name="Path 993" d="M25.113,241.822,41.18,251.09l9.508-5.488L34.635,236.32s-9.875,5.29-9.522,5.5" transform="translate(10.31 -36.963)" fill="url(#linear-gradient-12)"/>
          <path id="Path_994" data-name="Path 994" d="M46.008,242.9l.028,111.26-9.522,5.488L36.5,248.388Z" transform="translate(14.99 -34.26)" fill="#f2f2f2"/>
        </g>
        <g id="Layer_11" data-name="Layer 11" transform="translate(496.16 77.154) rotate(60)">
          <path id="Path_995" data-name="Path 995" d="M0,16.122,27.924,0l167.53,96.72L167.53,112.842Z" transform="translate(0.282 68.078)" fill="url(#linear-gradient-13)"/>
          <path id="Path_996" data-name="Path 996" d="M0,16.122,27.924,0l167.53,96.72L167.53,112.842Z" transform="translate(0.282 68.078)" fill="url(#linear-gradient-13)"/>
          <path id="Path_997" data-name="Path 997" d="M28.206,0,.282,16.122s-.635,19.463,0,19.1L28.206,19.145Z" transform="translate(0 48.974)" fill="url(#linear-gradient-15)"/>
          <path id="Path_998" data-name="Path 998" d="M0,0,167.572,96.706v19.1L0,19.1Z" transform="translate(28.206 48.974)" fill="#f2f2f2"/>
          <path id="Path_999" data-name="Path 999" d="M28.206,0,.282,16.122s-.635,19.463,0,19.1L28.206,19.145Z" transform="translate(0 48.974)" fill="url(#linear-gradient-15)"/>
          <path id="Path_1000" data-name="Path 1000" d="M0,0,167.572,96.706v19.1L0,19.1Z" transform="translate(28.206 48.974)" fill="#f2f2f2"/>
          <path id="Path_1001" data-name="Path 1001" d="M0,16.122,27.924,0,195.468,96.72l-27.924,16.122Z" transform="translate(60.299 33.432)" fill="url(#linear-gradient-17)"/>
          <path id="Path_1002" data-name="Path 1002" d="M0,16.122,27.924,0,195.468,96.72l-27.924,16.122Z" transform="translate(60.299 33.432)" fill="url(#linear-gradient-17)"/>
          <path id="Path_1003" data-name="Path 1003" d="M28.206,0,.282,16.122s-.635,19.463,0,19.1L28.206,19.1Z" transform="translate(60.017 14.286)" fill="url(#linear-gradient-19)"/>
          <path id="Path_1004" data-name="Path 1004" d="M0,0,167.572,96.706v19.118L0,19.118Z" transform="translate(88.223 14.314)" fill="#f2f2f2"/>
          <path id="Path_1005" data-name="Path 1005" d="M28.206,0,.282,16.122s-.635,19.463,0,19.1L28.206,19.1Z" transform="translate(60.017 14.286)" fill="url(#linear-gradient-19)"/>
          <path id="Path_1006" data-name="Path 1006" d="M0,0,167.572,96.706v19.118L0,19.118Z" transform="translate(88.223 14.314)" fill="#f2f2f2"/>
          <path id="Path_1007" data-name="Path 1007" d="M0,10.366,17.944,0,125.61,62.156,107.666,72.522Z" transform="translate(160.87 12.271)" fill="url(#linear-gradient-21)"/>
          <path id="Path_1008" data-name="Path 1008" d="M0,10.366,17.944,0,125.61,62.156,107.666,72.522Z" transform="translate(160.87 12.271)" fill="url(#linear-gradient-21)"/>
          <path id="Path_1009" data-name="Path 1009" d="M18.122,0,.178,10.366s-.4,12.506,0,12.271L18.122,12.271Z" transform="translate(160.692)" fill="url(#linear-gradient-23)"/>
          <path id="Path_1010" data-name="Path 1010" d="M0,0,107.679,62.142V74.427L0,12.271Z" transform="translate(178.814)" fill="#f2f2f2"/>
          <path id="Path_1011" data-name="Path 1011" d="M18.122,0,.178,10.366s-.4,12.506,0,12.271L18.122,12.271Z" transform="translate(160.692)" fill="url(#linear-gradient-23)"/>
          <path id="Path_1012" data-name="Path 1012" d="M0,0,107.679,62.142V74.427L0,12.271Z" transform="translate(178.814)" fill="#f2f2f2"/>
          <path id="Path_986" data-name="Path 986" d="M0,139.192l18.538-10.7L18.552,0,0,10.711Z" transform="translate(167.895 202.729)" fill="url(#linear-gradient-25)"/>
          <path id="Path_987" data-name="Path 987" d="M29.589,6.28,11.051,17.047S-.351,10.946.008,10.7L18.546,0Z" transform="translate(167.832 331.279)" fill="url(#linear-gradient-26)"/>
          <path id="Path_988" data-name="Path 988" d="M11,134.844,11.015,6.35.028,0,0,128.509Z" transform="translate(186.433 202.715)" fill="#f2f2f2"/>
        </g>
        <g id="Layer_7-2" data-name="Layer 7" transform="translate(194.501 111.964)">
          <path id="Path_985" data-name="Path 985" d="M176.74,184.962V327.551l123.5-71.287V113.66Z" transform="translate(-118.624 -63.938)" fill="#f2f2f2"/>
          <path id="Path_1013" data-name="Path 1013" d="M187.384,309.115,156.51,291.289V148.7l30.874,17.826Z" transform="translate(-129.268 -45.501)" fill="url(#linear-gradient-27)"/>
          <path id="Path_1014" data-name="Path 1014" d="M198.88,189.676l.015,95.736,82.916-47.876V141.8Z" transform="translate(-106.975 -49.132)" fill="#35ffc7"/>
          <path id="Path_1015" data-name="Path 1015" d="M206.04,273.036,185.3,261.071V165.32l20.725,11.98Z" transform="translate(-114.12 -36.756)" fill="url(#linear-gradient-28)"/>
          <path id="Path_1016" data-name="Path 1016" d="M288.957,145.925,268.216,133.96,185.3,181.82l20.725,11.98Z" transform="translate(-114.12 -53.257)" fill="url(#linear-gradient-29)"/>
          <path id="Path_1017" data-name="Path 1017" d="M310.881,119.806,280.007,101.98l-123.5,71.3,30.874,17.826Z" transform="translate(-129.268 -70.083)" fill="url(#linear-gradient-30)"/>
          <path id="Path_1018" data-name="Path 1018" d="M212.1,211.367l-.214,12.53,42.992-24.815-10.744-6.211Z" transform="translate(-100.129 -22.261)" fill="url(#linear-gradient-31)"/>
          <path id="Path_1019" data-name="Path 1019" d="M233.02,170.866l10.744-6.456v49.646l-10.744-6.211Z" transform="translate(-89.012 -37.235)" fill="url(#linear-gradient-32)"/>
          <path id="Path_1020" data-name="Path 1020" d="M244.034,205.6l-32,18.512.015-36.979,32.019-18.5Z" transform="translate(-100.056 -35.009)" fill="#b4ffda"/>
          <g id="Group_380" data-name="Group 380" opacity="0.5">
            <path id="Path_1021" data-name="Path 1021" d="M198.88,189.676l.015,95.736,82.916-47.876V141.8Z" transform="translate(-106.975 -49.132)" fill="url(#linear-gradient-33)"/>
            <g id="Group_379" data-name="Group 379" transform="translate(91.905 92.668)" style="mix-blend-mode: soft-light;isolation: isolate">
              <g id="Group_378" data-name="Group 378" opacity="0.75">
                <path id="Path_1022" data-name="Path 1022" d="M198.88,189.676l.015,95.736,82.916-47.876V141.8Z" transform="translate(-198.88 -141.8)" fill="#fff"/>
              </g>
            </g>
          </g>
        </g>
      </g>
      <path id="Path_1022-2" data-name="Path 1022" d="M198.88,189.676l.015,95.736,82.916-47.876V141.8Z" transform="translate(87.526 62.832)" fill="#6f00ff" style="mix-blend-mode: hard-light;isolation: isolate"/>
    </g>
  </g>
</svg>
