<svg xmlns="http://www.w3.org/2000/svg" xmlns:xlink="http://www.w3.org/1999/xlink" width="489.413" height="489.431" xmlns:v="https://vecta.io/nano"><defs><linearGradient id="A" x1=".5" x2=".5" y2="1"><stop offset="0" stop-color="#ffcd58"/><stop offset="1" stop-color="#fe48c1"/></linearGradient><linearGradient id="B" y1="1" y2="0" xlink:href="#A"/></defs><g transform="matrix(.707107 .707107 -.707107 .707107 245.007 -50.961)" opacity=".5"><path d="M98.362 418.167c-21.47 3.814-35.07-22.437-19.658-37.935l114.37-114.986c4.172-4.203 9.849-6.566 15.771-6.565s11.598 2.366 15.768 6.571l114.416 115.029c15.422 15.5 1.83 41.746-19.642 37.928l-106.634-18.971c-2.569-.458-5.198-.458-7.767 0z" fill="#444"/><path d="M152.678 346.96c-22.752 11.429-43.937-17.891-25.933-35.891l66.989-66.976c8.759-8.755 22.957-8.753 31.712.006l67.018 67c18.007 18.007-3.166 47.319-25.922 35.88l-46.866-23.551a22.43 22.43 0 0 0-20.141 0z" fill="#2e2e2e"/><path d="M98.331.375C76.856-3.444 63.265 22.8 78.687 38.3l114.415 115.03c4.17 4.204 9.847 6.569 15.768 6.571s11.599-2.362 15.771-6.565L339.012 38.353c15.416-15.5 1.814-41.746-19.657-37.935L212.729 19.349c-2.569.458-5.198.458-7.767 0z" fill="#444"/><path d="M152.625 73.273c-22.757-11.439-43.931 17.873-25.919 35.88l67.015 67c8.755 8.759 22.953 8.761 31.712.006l66.992-66.976c18-18-3.184-47.321-25.936-35.891l-46.857 23.542a22.43 22.43 0 0 1-20.141 0z" fill="#2e2e2e"/><path d="M.38 99.033c-3.819-21.328 22.423-34.827 37.928-19.509l115.03 113.634a21.96 21.96 0 0 1 .006 31.324L38.358 338.072c-15.5 15.311-41.746 1.8-37.935-19.523l18.931-105.897c.458-2.551.458-5.163 0-7.714z" fill="#444"/><path d="M72.402 154.112c-11.439-22.757 17.873-43.931 35.881-25.919l67 67.015c8.759 8.755 8.761 22.953.006 31.712l-66.974 66.991c-18 18-47.32-3.184-35.891-25.936l23.539-46.857a22.43 22.43 0 0 0 0-20.141z" fill="#2e2e2e"/><path d="M418.222 99.079c3.811-21.319-22.436-34.823-37.935-19.517l-114.986 113.55c-4.2 4.127-6.566 9.769-6.565 15.658s2.369 11.53 6.571 15.655L380.339 338.02c15.5 15.311 41.746 1.817 37.928-19.5l-18.974-105.87a21.81 21.81 0 0 1 0-7.711z" fill="#444"/><path d="M346.086 154.166c11.433-22.752-17.888-43.938-35.888-25.933l-66.976 66.989c-8.755 8.759-8.753 22.957.006 31.712l67 67.018c18.007 18.007 47.319-3.166 35.88-25.922l-23.554-46.867a22.43 22.43 0 0 1 0-20.141z" fill="#2e2e2e"/></g><path d="M205.308 319.038c-3.429.61-6.857-1.077-8.467-4.165s-1.03-6.864 1.433-9.327l40.95-40.908a7.99 7.99 0 0 1 11.29 0l40.95 40.908c2.463 2.462 3.044 6.238 1.433 9.327s-5.038 4.775-8.467 4.165l-38.171-6.741a7.97 7.97 0 0 0-2.78 0z" fill="url(#A)"/><path d="M224.623 293.388c-8.092 4.067-15.624-6.36-9.22-12.764l23.827-23.827c1.495-1.496 3.524-2.336 5.638-2.336s4.143.84 5.638 2.336l23.828 23.827c6.4 6.4-1.129 16.831-9.221 12.764l-16.665-8.376c-2.253-1.132-4.909-1.132-7.162 0z" fill="#fff"/><path d="M205.308 170.227c-3.429-.61-6.857 1.077-8.467 4.165s-1.03 6.864 1.433 9.327l40.95 40.908a7.99 7.99 0 0 0 11.29 0l40.95-40.908c2.463-2.462 3.044-6.238 1.433-9.327s-5.038-4.775-8.467-4.165l-38.171 6.741a7.97 7.97 0 0 1-2.78 0z" fill="url(#B)"/><path d="M224.623 195.872c-8.092-4.067-15.624 6.36-9.22 12.764l23.827 23.827a7.97 7.97 0 0 0 11.276 0l23.828-23.827c6.4-6.4-1.129-16.831-9.221-12.764l-16.665 8.376c-2.253 1.132-4.909 1.132-7.162 0zm-54.162 9.195c-.608-3.429 1.078-6.856 4.166-8.465a7.98 7.98 0 0 1 9.326 1.433l40.908 40.95a7.99 7.99 0 0 1 0 11.29l-40.908 40.95c-2.462 2.463-6.238 3.044-9.327 1.433s-4.775-5.038-4.165-8.467l6.741-38.171a7.97 7.97 0 0 0 0-2.78z" fill="#fff"/><path d="M196.111 224.383c-4.067-8.092 6.36-15.624 12.764-9.224l23.827 23.831c1.496 1.495 2.336 3.524 2.336 5.639s-.84 4.143-2.336 5.638l-23.827 23.829c-6.4 6.4-16.831-1.129-12.764-9.221l8.375-16.665c1.132-2.253 1.132-4.909 0-7.162z" fill="#4860fe"/><path d="M319.276 205.067c.608-3.429-1.078-6.856-4.166-8.465s-6.863-1.029-9.326 1.433l-40.908 40.95a7.99 7.99 0 0 0 0 11.29l40.908 40.95c2.462 2.463 6.238 3.044 9.327 1.433s4.775-5.038 4.165-8.467l-6.741-38.171a7.97 7.97 0 0 1 0-2.78z" fill="#fff"/><path d="M293.627 224.383c4.067-8.092-6.361-15.624-12.764-9.224l-23.828 23.831c-1.496 1.495-2.336 3.524-2.336 5.639s.84 4.143 2.336 5.638l23.828 23.829c6.4 6.4 16.831-1.129 12.764-9.221l-8.376-16.665c-1.132-2.253-1.132-4.909 0-7.162z" fill="#4860fe"/></svg>