<svg width="191" height="191" viewBox="0 0 191 191" fill="none" xmlns="http://www.w3.org/2000/svg">
<rect x="8" y="8" width="175" height="175" rx="87.5" stroke="white" stroke-width="16"/>
<path d="M55.7013 60.3875V64.0518C55.7013 64.2279 55.6413 64.3988 55.5312 64.5362C55.1633 64.9956 54.4378 64.8933 54.2112 64.3501L53.4805 62.5987L51.832 56.63C51.6397 55.9338 51.0063 55.4516 50.284 55.4516H50.2483C49.7947 55.4516 49.3645 55.2503 49.0739 54.902C48.6196 54.3575 47.8506 54.1967 47.2162 54.5135L45.766 55.2377C45.4817 55.3797 45.1798 55.4832 44.8682 55.5454L41.7575 56.1668C40.8647 56.3451 39.9439 56.3296 39.0575 56.1213C37.249 55.6963 35.3449 56.0836 33.8461 57.1814L33.718 57.2753C32.9202 57.8596 32.2616 58.6131 31.7894 59.482L30.3102 62.2034C28.6749 65.2122 27.8182 68.5828 27.8182 72.0074V74.9213C27.8182 75.5475 29.0627 76.3187 30.0695 76.8155C30.5316 77.0435 31.0445 77.1394 31.5599 77.1394H34.0671C34.8405 77.1394 35.4675 76.5124 35.4675 75.7389C35.4675 75.2337 35.7396 74.7677 36.1795 74.5194L39.7379 72.5106C40.5578 72.0477 41.5895 72.2193 42.2155 72.9226C42.7598 73.5342 42.8764 74.4158 42.5099 75.1479L39.488 81.1844C39.0201 82.119 39.3023 83.2551 40.1531 83.862C40.3186 83.9801 40.5001 84.0737 40.6922 84.1401L44.978 85.6218C46.0793 86.0026 46.8182 87.0398 46.8182 88.2051C46.8182 88.3854 46.8004 88.5651 46.765 88.7418L46.0009 92.5573C45.5904 94.6074 46.3035 96.7208 47.872 98.1032L48.5314 98.6843C49.1765 99.2528 50.0069 99.5665 50.8667 99.5665C51.2898 99.5665 51.7094 99.4904 52.1056 99.3421L52.293 99.2719C53.0634 98.9833 53.9072 98.9549 54.6953 99.1911L55.2097 99.3452C55.6879 99.4885 56.1039 99.7888 56.3905 100.198L56.4576 100.293C57.1285 101.251 58.451 101.478 59.4026 100.799L63.0296 97.5055C64.1889 96.4528 65.6987 95.8697 67.2646 95.8697H67.3979C67.9859 95.8697 68.5701 95.9644 69.1281 96.1501L69.6546 96.3254C70.2129 96.5113 70.8099 96.5484 71.3869 96.4332L73.07 96.097C73.7261 95.9659 74.3805 96.3296 74.6156 96.9559C74.8156 97.4885 75.3249 97.8413 75.8938 97.8413H80.1299L88.2727 98.8271H89.8657C90.8938 98.8271 91.7273 99.6606 91.7273 100.689C91.7273 101.49 92.2403 102.202 93.0008 102.455L94.2354 102.866C95.0088 103.123 95.6742 103.631 96.1267 104.309L96.7784 105.285C98.0934 107.256 100.306 108.439 102.674 108.439H103.072C103.731 108.439 104.388 108.522 105.027 108.687L105.901 108.912C109.632 109.874 112.847 112.238 114.877 115.513L114.922 115.586L116.014 116.988C116.435 117.528 116.767 118.133 116.998 118.778C117.565 120.365 118.732 121.667 120.249 122.404L124.174 124.311C126.051 125.223 128.079 125.784 130.158 125.967L133.876 126.295C134.892 126.385 135.9 126.554 136.89 126.801L138.943 127.314C139.865 127.544 140.738 127.939 141.52 128.479L142.952 129.469C143.338 129.737 143.797 129.88 144.268 129.88C145.413 129.88 146.386 130.718 146.556 131.85L146.736 133.053C146.903 134.164 146.56 135.291 145.802 136.12L141.761 140.543C137.827 144.847 136.493 150.925 138.262 156.481L140.007 161.961C140.226 162.649 140.338 163.368 140.338 164.091C140.338 167.841 137.391 170.929 133.645 171.104L127.746 171.38C125.643 171.479 123.594 172.079 121.769 173.13L103.48 183.669C100.468 185.404 97.0535 186.317 93.5777 186.317H91.9553C83.8382 186.317 76.7555 180.81 74.7551 172.944C74.3917 171.514 74.2078 170.045 74.2078 168.57V167.947C74.2078 162.47 72.2294 157.178 68.6369 153.043L52.9419 134.982C52.0012 133.9 51.3584 132.591 51.0768 131.185L50.7376 129.49C50.5962 128.785 50.6945 128.052 51.0167 127.408C51.3344 126.773 51.4345 126.052 51.3015 125.355L51.0427 123.998C50.7058 122.231 51.0315 120.402 51.9578 118.86L52.8305 117.407C53.2613 116.69 53.7999 116.044 54.4276 115.491C56.4583 113.701 57.4675 111.02 57.1207 108.335L56.9902 107.325C56.7916 105.788 56.2406 104.318 55.3801 103.028L54.7932 102.149C54.7407 102.071 54.6806 101.997 54.6137 101.931C54.009 101.326 53.0136 101.382 52.4793 102.049L52.2474 102.338C51.7991 102.898 51.0573 103.131 50.3695 102.929L48.7511 102.454C47.8193 102.18 47.0081 101.598 46.4506 100.802L40.0592 91.6829C39.1569 90.3955 37.8931 89.4046 36.4277 88.8354L36.0623 88.6935C34.8689 88.2299 33.8353 87.4305 33.0866 86.3919L30.6975 83.0778C30.1756 82.3537 29.2057 82.1148 28.4072 82.5136C28.0266 82.7037 27.5914 82.7544 27.1773 82.6571L25.6497 82.2981C24.3353 81.9892 23.1588 81.2571 22.3012 80.2143L18.2765 75.3207C18.0581 75.055 17.8659 74.7689 17.7027 74.4661L17.2401 73.6081C16.6108 72.4408 16.6624 71.0243 17.375 69.9059C17.7492 69.3185 17.9481 68.6365 17.9481 67.9399V60.3806V57.6046C17.9481 56.5563 16.4386 56.3977 16.2208 57.4232L16.1727 57.6876C15.9455 58.9355 14.1303 58.8544 14.0153 57.5912C14.0052 57.4799 14.0122 57.3677 14.0362 57.2585L15.1554 52.1662C15.8621 48.9508 17.0217 45.8521 18.5997 42.9628L19.2367 41.7963C21.1651 38.2653 23.5676 35.0148 26.3776 32.1354L29.5887 28.845C37.2057 21.0396 46.3839 14.9293 56.5237 10.9133L79.4315 1.84029C82.4253 0.654557 85.7494 0.604864 88.7773 1.70058C95.5974 4.16863 99.1455 11.68 96.7199 18.5154L95.7144 21.3487C94.7253 24.1361 92.9035 26.5522 90.4958 28.2699C89.5112 28.9723 88.4421 29.5482 87.3139 29.9839L78.434 33.4133C73.3154 35.3901 69.0633 39.1175 66.4333 43.9332L66.1671 44.4206C65.1192 46.3395 63.7615 48.0721 62.1489 49.5485L59.3418 52.1186C57.0222 54.2422 55.7013 57.2426 55.7013 60.3875Z" fill="white"/>
<path d="M152.497 45.834L148.83 40.5051C148.055 39.3786 148.862 37.8447 150.229 37.8447C150.947 37.8447 151.587 37.3938 151.828 36.7182L153.5 32.0404L155.308 33.411C156.696 34.4628 157.511 36.1036 157.511 37.8447C157.511 39.9576 158.4 41.9729 159.961 43.397L166.943 49.7678C169.124 51.7577 170.988 54.0696 172.469 56.6233L176.462 63.505C179.664 69.0252 181.937 75.0344 183.189 81.2921L185.431 92.4946C185.805 94.3606 185.721 96.2894 185.186 98.1158L180.76 113.226C180.143 115.331 177.469 115.963 175.975 114.356C175.836 114.206 175.714 114.042 175.61 113.865L171.346 106.621C170.614 105.378 169.616 104.312 168.423 103.499C165.749 101.677 164.149 98.6507 164.149 95.4147V88.7139C164.149 87.1524 163.368 85.6942 162.069 84.8284C160.349 83.683 159.587 81.5436 160.195 79.569L160.768 77.7092C161.17 76.4036 161.196 75.0112 160.844 73.6913L159.79 69.7417C159.388 68.2363 159.499 66.64 160.104 65.2042L160.659 63.8868C161.118 62.7977 161.068 61.5609 160.524 60.5119L159.097 57.7625C158.374 56.369 159.385 54.705 160.955 54.705C162.463 54.705 163.476 53.159 162.875 51.7765L162.19 50.2031C161.802 49.312 160.639 49.0911 159.952 49.778C159.495 50.2344 158.783 50.3126 158.238 49.9661L153.961 47.2466C153.383 46.8789 152.885 46.3985 152.497 45.834Z" fill="white"/>
</svg>
