<svg width="173" height="134" viewBox="0 0 173 134" fill="none" xmlns="http://www.w3.org/2000/svg">
<path d="M86.1471 43.1319L122.583 22.1145C123.721 21.4578 125.177 21.8475 125.834 22.9849L128.64 27.8408C129.297 28.9781 128.907 30.4325 127.769 31.0891L91.3332 52.1066L86.1471 43.1319Z" fill="white"/>
<path d="M93.5558 55.9528L141.54 28.2734C142.679 27.6168 144.134 28.0065 144.791 29.1438L147.598 33.9998C148.255 35.1371 147.865 36.5914 146.726 37.248L98.7419 64.9274L93.5558 55.9528Z" fill="white"/>
<path d="M100.965 68.7737L132.267 50.7171C133.406 50.0605 134.861 50.4502 135.518 51.5875L138.324 56.4434C138.982 57.5808 138.592 59.0351 137.453 59.6917L106.151 77.7483L100.965 68.7737Z" fill="white"/>
<path d="M143.218 47.1462C142.56 46.0088 142.95 44.5545 144.089 43.8979L148.949 41.0943C150.087 40.4377 151.543 40.8273 152.2 41.9647L155.006 46.8206C155.663 47.958 155.273 49.4123 154.135 50.0689L149.275 52.8725C148.137 53.5291 146.681 53.1395 146.024 52.0021L143.218 47.1462Z" fill="white"/>
<path d="M153.774 23.9623C153.117 22.825 153.507 21.3707 154.645 20.714L159.505 17.9104C160.644 17.2538 162.099 17.6435 162.757 18.7808L165.563 23.6368C166.22 24.7741 165.83 26.2284 164.692 26.8851L159.831 29.6886C158.693 30.3453 157.237 29.9556 156.58 28.8183L153.774 23.9623Z" fill="white"/>
<path d="M160.892 54.0454C160.235 52.908 160.625 51.4537 161.763 50.7971L166.624 47.9935C167.762 47.3369 169.217 47.7265 169.875 48.8639L172.681 53.7198C173.338 54.8572 172.948 56.3115 171.81 56.9681L166.949 59.7717C165.811 60.4283 164.355 60.0387 163.698 58.9013L160.892 54.0454Z" fill="white"/>
<path d="M108.373 81.5946L146.092 59.8369C147.23 59.1803 148.686 59.57 149.343 60.7073L152.149 65.5633C152.806 66.7006 152.416 68.1549 151.278 68.8115L113.559 90.5692L108.373 81.5946Z" fill="white"/>
<path d="M115.782 94.4155L144.518 77.8393C145.656 77.1827 147.112 77.5723 147.769 78.7097L150.575 83.5656C151.233 84.703 150.842 86.1573 149.704 86.8139L120.968 103.39L115.782 94.4155Z" fill="white"/>
<path d="M144.518 77.8393C145.656 77.1827 147.112 77.5723 147.769 78.7097L163.17 105.361C163.827 106.498 163.437 107.953 162.299 108.609L157.439 111.413C156.3 112.07 154.845 111.68 154.187 110.543L137.597 81.8319L144.518 77.8393Z" fill="white"/>
<path d="M127.769 31.0891C128.907 30.4325 129.297 28.9781 128.64 27.8408L113.239 1.18936C112.582 0.052016 111.126 -0.337666 109.988 0.318977L105.128 3.12256C103.989 3.7792 103.599 5.23352 104.257 6.37086L120.847 35.0816L127.769 31.0891Z" fill="white"/>
<path d="M76.6774 35.6267L122.739 115.337C123.589 116.808 122.666 118.669 120.979 118.884L2.68814 133.979C0.593638 134.247 -0.786105 131.859 0.49282 130.18L72.7225 35.3753C73.7522 34.0237 75.8273 34.1556 76.6774 35.6267Z" fill="white"/>
</svg>
