<svg width="142" height="138" viewBox="0 0 142 138" fill="none" xmlns="http://www.w3.org/2000/svg">
<path fill-rule="evenodd" clip-rule="evenodd" d="M12 17C5.37258 17 0 22.3726 0 29V126C0 132.627 5.37258 138 12 138H130C136.627 138 142 132.627 142 126V29C142 22.3726 136.627 17 130 17H12ZM129 42H13V122C13 123.657 14.3431 125 16 125H126C127.657 125 129 123.657 129 122V42Z" fill="white"/>
<rect x="18" width="20" height="25" rx="4" fill="white"/>
<rect x="104" width="20" height="25" rx="4" fill="white"/>
<path d="M60.224 88.772C60.224 90.692 59.588 92.288 58.316 93.56C57.044 94.808 55.304 95.588 53.096 95.9V98.528H48.776V95.864C47.312 95.6 45.992 95.096 44.816 94.352C43.64 93.584 42.656 92.6 41.864 91.4L45.212 88.232C46.004 89.168 46.952 89.936 48.056 90.536C49.184 91.136 50.228 91.436 51.188 91.436C52.196 91.436 53 91.22 53.6 90.788C54.2 90.356 54.5 89.792 54.5 89.096C54.5 88.544 54.404 88.112 54.212 87.8C54.044 87.488 53.672 87.164 53.096 86.828C52.544 86.468 51.584 85.94 50.216 85.244C48.392 84.332 46.964 83.492 45.932 82.724C44.9 81.956 44.12 81.116 43.592 80.204C43.088 79.268 42.836 78.164 42.836 76.892C42.836 75.26 43.364 73.88 44.42 72.752C45.5 71.6 46.952 70.82 48.776 70.412V68H53.096V70.232C54.608 70.424 55.928 70.856 57.056 71.528C58.184 72.176 59.036 73.028 59.612 74.084L55.976 76.82C54.8 75.428 53.396 74.732 51.764 74.732C50.756 74.732 49.976 74.924 49.424 75.308C48.896 75.668 48.632 76.184 48.632 76.856C48.632 77.288 48.788 77.684 49.1 78.044C49.412 78.404 49.952 78.812 50.72 79.268C51.512 79.7 52.688 80.276 54.248 80.996C55.76 81.692 56.948 82.4 57.812 83.12C58.676 83.816 59.288 84.62 59.648 85.532C60.032 86.42 60.224 87.5 60.224 88.772Z" fill="white"/>
<path d="M79.8412 88.772C79.8412 90.692 79.2052 92.288 77.9332 93.56C76.6612 94.808 74.9212 95.588 72.7132 95.9V98.528H68.3932V95.864C66.9292 95.6 65.6092 95.096 64.4332 94.352C63.2572 93.584 62.2732 92.6 61.4812 91.4L64.8292 88.232C65.6212 89.168 66.5692 89.936 67.6732 90.536C68.8012 91.136 69.8452 91.436 70.8052 91.436C71.8132 91.436 72.6172 91.22 73.2172 90.788C73.8172 90.356 74.1172 89.792 74.1172 89.096C74.1172 88.544 74.0212 88.112 73.8292 87.8C73.6612 87.488 73.2892 87.164 72.7132 86.828C72.1612 86.468 71.2012 85.94 69.8332 85.244C68.0092 84.332 66.5812 83.492 65.5492 82.724C64.5172 81.956 63.7372 81.116 63.2092 80.204C62.7052 79.268 62.4532 78.164 62.4532 76.892C62.4532 75.26 62.9812 73.88 64.0372 72.752C65.1172 71.6 66.5692 70.82 68.3932 70.412V68H72.7132V70.232C74.2252 70.424 75.5452 70.856 76.6732 71.528C77.8012 72.176 78.6532 73.028 79.2292 74.084L75.5932 76.82C74.4172 75.428 73.0132 74.732 71.3812 74.732C70.3732 74.732 69.5932 74.924 69.0412 75.308C68.5132 75.668 68.2492 76.184 68.2492 76.856C68.2492 77.288 68.4052 77.684 68.7172 78.044C69.0292 78.404 69.5692 78.812 70.3372 79.268C71.1292 79.7 72.3052 80.276 73.8652 80.996C75.3772 81.692 76.5652 82.4 77.4292 83.12C78.2932 83.816 78.9052 84.62 79.2652 85.532C79.6492 86.42 79.8412 87.5 79.8412 88.772Z" fill="white"/>
<path d="M99.4584 88.772C99.4584 90.692 98.8224 92.288 97.5504 93.56C96.2784 94.808 94.5384 95.588 92.3304 95.9V98.528H88.0104V95.864C86.5464 95.6 85.2264 95.096 84.0504 94.352C82.8744 93.584 81.8904 92.6 81.0984 91.4L84.4464 88.232C85.2384 89.168 86.1864 89.936 87.2904 90.536C88.4184 91.136 89.4624 91.436 90.4224 91.436C91.4304 91.436 92.2344 91.22 92.8344 90.788C93.4344 90.356 93.7344 89.792 93.7344 89.096C93.7344 88.544 93.6384 88.112 93.4464 87.8C93.2784 87.488 92.9064 87.164 92.3304 86.828C91.7784 86.468 90.8184 85.94 89.4504 85.244C87.6264 84.332 86.1984 83.492 85.1664 82.724C84.1344 81.956 83.3544 81.116 82.8264 80.204C82.3224 79.268 82.0704 78.164 82.0704 76.892C82.0704 75.26 82.5984 73.88 83.6544 72.752C84.7344 71.6 86.1864 70.82 88.0104 70.412V68H92.3304V70.232C93.8424 70.424 95.1624 70.856 96.2904 71.528C97.4184 72.176 98.2704 73.028 98.8464 74.084L95.2104 76.82C94.0344 75.428 92.6304 74.732 90.9984 74.732C89.9904 74.732 89.2104 74.924 88.6584 75.308C88.1304 75.668 87.8664 76.184 87.8664 76.856C87.8664 77.288 88.0224 77.684 88.3344 78.044C88.6464 78.404 89.1864 78.812 89.9544 79.268C90.7464 79.7 91.9224 80.276 93.4824 80.996C94.9944 81.692 96.1824 82.4 97.0464 83.12C97.9104 83.816 98.5224 84.62 98.8824 85.532C99.2664 86.42 99.4584 87.5 99.4584 88.772Z" fill="white"/>
<path d="M60.224 88.772C60.224 90.692 59.588 92.288 58.316 93.56C57.044 94.808 55.304 95.588 53.096 95.9V98.528H48.776V95.864C47.312 95.6 45.992 95.096 44.816 94.352C43.64 93.584 42.656 92.6 41.864 91.4L45.212 88.232C46.004 89.168 46.952 89.936 48.056 90.536C49.184 91.136 50.228 91.436 51.188 91.436C52.196 91.436 53 91.22 53.6 90.788C54.2 90.356 54.5 89.792 54.5 89.096C54.5 88.544 54.404 88.112 54.212 87.8C54.044 87.488 53.672 87.164 53.096 86.828C52.544 86.468 51.584 85.94 50.216 85.244C48.392 84.332 46.964 83.492 45.932 82.724C44.9 81.956 44.12 81.116 43.592 80.204C43.088 79.268 42.836 78.164 42.836 76.892C42.836 75.26 43.364 73.88 44.42 72.752C45.5 71.6 46.952 70.82 48.776 70.412V68H53.096V70.232C54.608 70.424 55.928 70.856 57.056 71.528C58.184 72.176 59.036 73.028 59.612 74.084L55.976 76.82C54.8 75.428 53.396 74.732 51.764 74.732C50.756 74.732 49.976 74.924 49.424 75.308C48.896 75.668 48.632 76.184 48.632 76.856C48.632 77.288 48.788 77.684 49.1 78.044C49.412 78.404 49.952 78.812 50.72 79.268C51.512 79.7 52.688 80.276 54.248 80.996C55.76 81.692 56.948 82.4 57.812 83.12C58.676 83.816 59.288 84.62 59.648 85.532C60.032 86.42 60.224 87.5 60.224 88.772Z" stroke="white" stroke-width="3"/>
<path d="M79.8412 88.772C79.8412 90.692 79.2052 92.288 77.9332 93.56C76.6612 94.808 74.9212 95.588 72.7132 95.9V98.528H68.3932V95.864C66.9292 95.6 65.6092 95.096 64.4332 94.352C63.2572 93.584 62.2732 92.6 61.4812 91.4L64.8292 88.232C65.6212 89.168 66.5692 89.936 67.6732 90.536C68.8012 91.136 69.8452 91.436 70.8052 91.436C71.8132 91.436 72.6172 91.22 73.2172 90.788C73.8172 90.356 74.1172 89.792 74.1172 89.096C74.1172 88.544 74.0212 88.112 73.8292 87.8C73.6612 87.488 73.2892 87.164 72.7132 86.828C72.1612 86.468 71.2012 85.94 69.8332 85.244C68.0092 84.332 66.5812 83.492 65.5492 82.724C64.5172 81.956 63.7372 81.116 63.2092 80.204C62.7052 79.268 62.4532 78.164 62.4532 76.892C62.4532 75.26 62.9812 73.88 64.0372 72.752C65.1172 71.6 66.5692 70.82 68.3932 70.412V68H72.7132V70.232C74.2252 70.424 75.5452 70.856 76.6732 71.528C77.8012 72.176 78.6532 73.028 79.2292 74.084L75.5932 76.82C74.4172 75.428 73.0132 74.732 71.3812 74.732C70.3732 74.732 69.5932 74.924 69.0412 75.308C68.5132 75.668 68.2492 76.184 68.2492 76.856C68.2492 77.288 68.4052 77.684 68.7172 78.044C69.0292 78.404 69.5692 78.812 70.3372 79.268C71.1292 79.7 72.3052 80.276 73.8652 80.996C75.3772 81.692 76.5652 82.4 77.4292 83.12C78.2932 83.816 78.9052 84.62 79.2652 85.532C79.6492 86.42 79.8412 87.5 79.8412 88.772Z" stroke="white" stroke-width="3"/>
<path d="M99.4584 88.772C99.4584 90.692 98.8224 92.288 97.5504 93.56C96.2784 94.808 94.5384 95.588 92.3304 95.9V98.528H88.0104V95.864C86.5464 95.6 85.2264 95.096 84.0504 94.352C82.8744 93.584 81.8904 92.6 81.0984 91.4L84.4464 88.232C85.2384 89.168 86.1864 89.936 87.2904 90.536C88.4184 91.136 89.4624 91.436 90.4224 91.436C91.4304 91.436 92.2344 91.22 92.8344 90.788C93.4344 90.356 93.7344 89.792 93.7344 89.096C93.7344 88.544 93.6384 88.112 93.4464 87.8C93.2784 87.488 92.9064 87.164 92.3304 86.828C91.7784 86.468 90.8184 85.94 89.4504 85.244C87.6264 84.332 86.1984 83.492 85.1664 82.724C84.1344 81.956 83.3544 81.116 82.8264 80.204C82.3224 79.268 82.0704 78.164 82.0704 76.892C82.0704 75.26 82.5984 73.88 83.6544 72.752C84.7344 71.6 86.1864 70.82 88.0104 70.412V68H92.3304V70.232C93.8424 70.424 95.1624 70.856 96.2904 71.528C97.4184 72.176 98.2704 73.028 98.8464 74.084L95.2104 76.82C94.0344 75.428 92.6304 74.732 90.9984 74.732C89.9904 74.732 89.2104 74.924 88.6584 75.308C88.1304 75.668 87.8664 76.184 87.8664 76.856C87.8664 77.288 88.0224 77.684 88.3344 78.044C88.6464 78.404 89.1864 78.812 89.9544 79.268C90.7464 79.7 91.9224 80.276 93.4824 80.996C94.9944 81.692 96.1824 82.4 97.0464 83.12C97.9104 83.816 98.5224 84.62 98.8824 85.532C99.2664 86.42 99.4584 87.5 99.4584 88.772Z" stroke="white" stroke-width="3"/>
</svg>
