<svg width="218" height="138" viewBox="0 0 218 138" fill="none" xmlns="http://www.w3.org/2000/svg">
<rect y="127" width="218" height="11" rx="4" fill="white"/>
<path fill-rule="evenodd" clip-rule="evenodd" d="M19.3281 0C17.119 0 15.3281 1.79086 15.3281 4V117C15.3281 119.209 17.119 121 19.3281 121H198.672C200.881 121 202.672 119.209 202.672 117V4C202.672 1.79086 200.881 0 198.672 0H19.3281ZM26.6953 11C25.5907 11 24.6953 11.8954 24.6953 13V108C24.6953 109.105 25.5907 110 26.6953 110H191.305C192.409 110 193.305 109.105 193.305 108V13C193.305 11.8954 192.409 11 191.305 11H26.6953Z" fill="white"/>
</svg>
