<svg width="146" height="161" viewBox="0 0 146 161" fill="none" xmlns="http://www.w3.org/2000/svg">
<path d="M70.9297 57.9319L45.7809 83.0807C45.1103 83.7513 44.162 84.0654 43.2237 83.9275L29.9213 81.9738C28.983 81.836 28.0347 82.1501 27.3641 82.8207L21.781 88.4037C21.3302 88.8545 21.4107 89.6064 21.9467 89.9516L41.1262 102.302C42.0862 102.921 42.9028 103.737 43.521 104.697L55.8717 123.877C56.2169 124.413 56.9688 124.493 57.4196 124.042L63.0026 118.459C63.6732 117.789 63.9873 116.84 63.8494 115.902L61.8957 102.6C61.7579 101.661 62.072 100.713 62.7426 100.042L87.8914 74.8936C88.8915 73.8935 90.5854 74.2191 91.1434 75.5188L111.276 122.411C111.555 123.061 112.402 123.224 112.902 122.724L120.253 115.373C120.922 114.704 121.236 113.76 121.102 112.825L113.006 56.4322C112.48 52.77 113.711 49.0742 116.327 46.4581L129.376 33.4088C137.453 25.3317 142.994 15.0705 145.317 3.88667C145.736 1.8713 143.952 0.0872099 141.937 0.505894C130.753 2.82928 120.492 8.37008 112.415 16.4471L99.3652 29.4964C96.7491 32.1125 93.0533 33.3431 89.3911 32.8173L32.9984 24.7217C32.063 24.5874 31.119 24.9018 30.4508 25.57L23.0996 32.9212C22.5995 33.4212 22.7623 34.2682 23.4122 34.5471L70.3045 54.6799C71.6042 55.2379 71.9298 56.9318 70.9297 57.9319Z" fill="white"/>
<path d="M55.5535 51.3788L47.5625 59.3699C46.0004 60.932 43.4677 60.9319 41.9056 59.3699L39.7843 57.2485C38.2222 55.6864 38.2222 53.1538 39.7843 51.5917L44.6699 46.7061L55.5535 51.3788Z" fill="white"/>
<path d="M40.7123 45.0069L9.37869 76.3404C7.81659 77.9025 5.28391 77.9025 3.72183 76.3404L1.60051 74.2191C0.038396 72.657 0.0384176 70.1244 1.60051 68.5623L29.8287 40.3341L40.7123 45.0069Z" fill="white"/>
<path d="M101.241 106.1L105.914 116.984L63.8259 159.072C62.2638 160.634 59.7312 160.634 58.1691 159.072L56.0477 156.951C54.4856 155.388 54.4856 152.856 56.0477 151.294L101.241 106.1Z" fill="white"/>
<path d="M94.8692 91.2591L99.542 102.143L87.8675 113.817C86.3054 115.379 83.7728 115.379 82.2107 113.817L80.0894 111.696C78.5272 110.134 78.5273 107.601 80.0894 106.039L94.8692 91.2591Z" fill="white"/>
<path d="M39.0772 62.1983C40.6393 63.7604 40.6393 66.2931 39.0772 67.8552L36.9558 69.9765C35.3937 71.5386 32.8611 71.5385 31.299 69.9765L29.1777 67.8552C27.6156 66.293 27.6156 63.7604 29.1777 62.1983L31.299 60.077C32.8611 58.5149 35.3937 58.5149 36.9559 60.077L39.0772 62.1983Z" fill="white"/>
<path d="M71.6041 114.524C73.1662 112.962 75.6988 112.962 77.2609 114.524L79.3823 116.646C80.9444 118.208 80.9444 120.74 79.3823 122.302L77.2609 124.424C75.6988 125.986 73.1662 125.986 71.6041 124.424L69.4828 122.302C67.9206 120.74 67.9207 118.208 69.4828 116.646L71.6041 114.524Z" fill="white"/>
</svg>
